<mxfile host="drawio-plugin" modified="2023-06-23T16:51:36.743Z" agent="5.0 (Windows NT 6.2; Win64; x64) AppleWebKit/537.36 (KHTML, like Gecko) Chrome/104.0.5112.102 Safari/537.36" etag="FpcsGe4g82pcyCjD0GEl" version="20.5.3" type="embed" pages="4"><diagram id="uFlRMp_rwjGLIqLwQ93U" name="Melee"><mxGraphModel dx="884" dy="797" grid="1" gridSize="10" guides="1" tooltips="1" connect="1" arrows="1" fold="1" page="1" pageScale="1" pageWidth="850" pageHeight="1100" math="0" shadow="0"><root><mxCell id="0"/><mxCell id="1" parent="0"/><mxCell id="tBoYhiTULySvVPYD965N-9" style="edgeStyle=orthogonalEdgeStyle;rounded=0;orthogonalLoop=1;jettySize=auto;html=1;exitX=1;exitY=0.5;exitDx=0;exitDy=0;entryX=0;entryY=0.5;entryDx=0;entryDy=0;" parent="1" source="tBoYhiTULySvVPYD965N-1" target="tBoYhiTULySvVPYD965N-2" edge="1"><mxGeometry relative="1" as="geometry"/></mxCell><mxCell id="tBoYhiTULySvVPYD965N-1" value="Melee" style="rounded=0;whiteSpace=wrap;html=1;gradientColor=none;" parent="1" vertex="1"><mxGeometry y="470" width="120" height="60" as="geometry"/></mxCell><mxCell id="tBoYhiTULySvVPYD965N-8" style="edgeStyle=orthogonalEdgeStyle;rounded=0;orthogonalLoop=1;jettySize=auto;html=1;exitX=1;exitY=0.5;exitDx=0;exitDy=0;entryX=0;entryY=0.5;entryDx=0;entryDy=0;" parent="1" source="tBoYhiTULySvVPYD965N-2" target="tBoYhiTULySvVPYD965N-3" edge="1"><mxGeometry relative="1" as="geometry"/></mxCell><mxCell id="SriwQ8CFZGS_IUmqfCnP-15" style="edgeStyle=orthogonalEdgeStyle;rounded=0;orthogonalLoop=1;jettySize=auto;html=1;exitX=0.5;exitY=1;exitDx=0;exitDy=0;entryX=0.5;entryY=0;entryDx=0;entryDy=0;" parent="1" source="tBoYhiTULySvVPYD965N-2" target="SriwQ8CFZGS_IUmqfCnP-2" edge="1"><mxGeometry relative="1" as="geometry"/></mxCell><mxCell id="tBoYhiTULySvVPYD965N-2" value="lvl.5" style="ellipse;whiteSpace=wrap;html=1;gradientColor=none;" parent="1" vertex="1"><mxGeometry x="170" y="470" width="120" height="60" as="geometry"/></mxCell><mxCell id="tBoYhiTULySvVPYD965N-7" style="edgeStyle=orthogonalEdgeStyle;rounded=0;orthogonalLoop=1;jettySize=auto;html=1;exitX=1;exitY=0.5;exitDx=0;exitDy=0;entryX=0;entryY=0.5;entryDx=0;entryDy=0;" parent="1" source="tBoYhiTULySvVPYD965N-3" target="tBoYhiTULySvVPYD965N-4" edge="1"><mxGeometry relative="1" as="geometry"/></mxCell><mxCell id="tBoYhiTULySvVPYD965N-3" value="lvl.10" style="ellipse;whiteSpace=wrap;html=1;gradientColor=none;" parent="1" vertex="1"><mxGeometry x="370" y="470" width="120" height="60" as="geometry"/></mxCell><mxCell id="tBoYhiTULySvVPYD965N-6" style="edgeStyle=orthogonalEdgeStyle;rounded=0;orthogonalLoop=1;jettySize=auto;html=1;exitX=1;exitY=0.5;exitDx=0;exitDy=0;entryX=0;entryY=0.5;entryDx=0;entryDy=0;" parent="1" source="tBoYhiTULySvVPYD965N-4" target="tBoYhiTULySvVPYD965N-5" edge="1"><mxGeometry relative="1" as="geometry"/></mxCell><mxCell id="SriwQ8CFZGS_IUmqfCnP-19" style="edgeStyle=orthogonalEdgeStyle;rounded=0;orthogonalLoop=1;jettySize=auto;html=1;exitX=0.5;exitY=1;exitDx=0;exitDy=0;" parent="1" source="tBoYhiTULySvVPYD965N-4" target="SriwQ8CFZGS_IUmqfCnP-11" edge="1"><mxGeometry relative="1" as="geometry"/></mxCell><mxCell id="tBoYhiTULySvVPYD965N-4" value="lvl.15" style="ellipse;whiteSpace=wrap;html=1;gradientColor=none;" parent="1" vertex="1"><mxGeometry x="560" y="470" width="120" height="60" as="geometry"/></mxCell><mxCell id="gR_Tg4eMF0vi53ElfXbl-20" style="edgeStyle=orthogonalEdgeStyle;rounded=0;orthogonalLoop=1;jettySize=auto;html=1;exitX=1;exitY=0.5;exitDx=0;exitDy=0;entryX=0;entryY=0.5;entryDx=0;entryDy=0;" parent="1" source="tBoYhiTULySvVPYD965N-5" target="gR_Tg4eMF0vi53ElfXbl-14" edge="1"><mxGeometry relative="1" as="geometry"/></mxCell><mxCell id="gR_Tg4eMF0vi53ElfXbl-21" style="edgeStyle=orthogonalEdgeStyle;rounded=0;orthogonalLoop=1;jettySize=auto;html=1;exitX=1;exitY=0.5;exitDx=0;exitDy=0;entryX=0;entryY=0.5;entryDx=0;entryDy=0;" parent="1" source="tBoYhiTULySvVPYD965N-5" target="gR_Tg4eMF0vi53ElfXbl-15" edge="1"><mxGeometry relative="1" as="geometry"/></mxCell><mxCell id="gR_Tg4eMF0vi53ElfXbl-22" style="edgeStyle=orthogonalEdgeStyle;rounded=0;orthogonalLoop=1;jettySize=auto;html=1;exitX=1;exitY=0.5;exitDx=0;exitDy=0;entryX=0;entryY=0.5;entryDx=0;entryDy=0;" parent="1" source="tBoYhiTULySvVPYD965N-5" target="gR_Tg4eMF0vi53ElfXbl-16" edge="1"><mxGeometry relative="1" as="geometry"/></mxCell><mxCell id="tBoYhiTULySvVPYD965N-5" value="Class Change" style="triangle;whiteSpace=wrap;html=1;gradientColor=none;" parent="1" vertex="1"><mxGeometry x="720" y="460" width="120" height="80" as="geometry"/></mxCell><mxCell id="tBoYhiTULySvVPYD965N-10" value="&lt;h1&gt;Melee&lt;/h1&gt;&lt;div&gt;The Base Melee Class. modifier&amp;nbsp; for strength, melee Weapons and Armor&lt;/div&gt;" style="text;html=1;strokeColor=none;fillColor=none;spacing=5;spacingTop=-20;whiteSpace=wrap;overflow=hidden;rounded=0;" parent="1" vertex="1"><mxGeometry x="10" y="10" width="190" height="120" as="geometry"/></mxCell><mxCell id="SriwQ8CFZGS_IUmqfCnP-2" value="List" style="swimlane;fontStyle=0;childLayout=stackLayout;horizontal=1;startSize=30;horizontalStack=0;resizeParent=1;resizeParentMax=0;resizeLast=0;collapsible=1;marginBottom=0;whiteSpace=wrap;html=1;gradientColor=none;swimlaneLine=1;glass=0;sketch=0;rounded=0;fillColor=default;fillStyle=solid;swimlaneFillColor=default;" parent="1" vertex="1"><mxGeometry x="125" y="630" width="210" height="120" as="geometry"/></mxCell><mxCell id="SriwQ8CFZGS_IUmqfCnP-3" value="Axe: Cleave - 2 SP&amp;nbsp;" style="text;strokeColor=none;fillColor=none;align=left;verticalAlign=middle;spacingLeft=4;spacingRight=4;overflow=hidden;points=[[0,0.5],[1,0.5]];portConstraint=eastwest;rotatable=0;whiteSpace=wrap;html=1;" parent="SriwQ8CFZGS_IUmqfCnP-2" vertex="1"><mxGeometry y="30" width="210" height="30" as="geometry"/></mxCell><mxCell id="SriwQ8CFZGS_IUmqfCnP-4" value="Sword: Cut - 2 SP" style="text;strokeColor=none;fillColor=none;align=left;verticalAlign=middle;spacingLeft=4;spacingRight=4;overflow=hidden;points=[[0,0.5],[1,0.5]];portConstraint=eastwest;rotatable=0;whiteSpace=wrap;html=1;" parent="SriwQ8CFZGS_IUmqfCnP-2" vertex="1"><mxGeometry y="60" width="210" height="30" as="geometry"/></mxCell><mxCell id="SriwQ8CFZGS_IUmqfCnP-5" value="Mace: Bash - 2 SP" style="text;strokeColor=none;fillColor=none;align=left;verticalAlign=middle;spacingLeft=4;spacingRight=4;overflow=hidden;points=[[0,0.5],[1,0.5]];portConstraint=eastwest;rotatable=0;whiteSpace=wrap;html=1;" parent="SriwQ8CFZGS_IUmqfCnP-2" vertex="1"><mxGeometry y="90" width="210" height="30" as="geometry"/></mxCell><mxCell id="SriwQ8CFZGS_IUmqfCnP-18" style="edgeStyle=orthogonalEdgeStyle;rounded=0;orthogonalLoop=1;jettySize=auto;html=1;exitX=0.5;exitY=0;exitDx=0;exitDy=0;" parent="1" source="tBoYhiTULySvVPYD965N-3" target="SriwQ8CFZGS_IUmqfCnP-7" edge="1"><mxGeometry relative="1" as="geometry"/></mxCell><mxCell id="SriwQ8CFZGS_IUmqfCnP-7" value="List" style="swimlane;fontStyle=0;childLayout=stackLayout;horizontal=1;startSize=30;horizontalStack=0;resizeParent=1;resizeParentMax=0;resizeLast=0;collapsible=1;marginBottom=0;whiteSpace=wrap;html=1;gradientColor=none;swimlaneLine=1;glass=0;sketch=0;rounded=0;fillColor=default;fillStyle=solid;swimlaneFillColor=default;" parent="1" vertex="1"><mxGeometry x="325" y="240" width="210" height="120" as="geometry"/></mxCell><mxCell id="SriwQ8CFZGS_IUmqfCnP-8" value="Armor Up - 3" style="text;strokeColor=none;fillColor=none;align=left;verticalAlign=middle;spacingLeft=4;spacingRight=4;overflow=hidden;points=[[0,0.5],[1,0.5]];portConstraint=eastwest;rotatable=0;whiteSpace=wrap;html=1;" parent="SriwQ8CFZGS_IUmqfCnP-7" vertex="1"><mxGeometry y="30" width="210" height="30" as="geometry"/></mxCell><mxCell id="SriwQ8CFZGS_IUmqfCnP-9" value="Strength Up - 3" style="text;strokeColor=none;fillColor=none;align=left;verticalAlign=middle;spacingLeft=4;spacingRight=4;overflow=hidden;points=[[0,0.5],[1,0.5]];portConstraint=eastwest;rotatable=0;whiteSpace=wrap;html=1;" parent="SriwQ8CFZGS_IUmqfCnP-7" vertex="1"><mxGeometry y="60" width="210" height="30" as="geometry"/></mxCell><mxCell id="SriwQ8CFZGS_IUmqfCnP-10" value="Shield Bash - 2" style="text;strokeColor=none;fillColor=none;align=left;verticalAlign=middle;spacingLeft=4;spacingRight=4;overflow=hidden;points=[[0,0.5],[1,0.5]];portConstraint=eastwest;rotatable=0;whiteSpace=wrap;html=1;" parent="SriwQ8CFZGS_IUmqfCnP-7" vertex="1"><mxGeometry y="90" width="210" height="30" as="geometry"/></mxCell><mxCell id="SriwQ8CFZGS_IUmqfCnP-11" value="List" style="swimlane;fontStyle=0;childLayout=stackLayout;horizontal=1;startSize=30;horizontalStack=0;resizeParent=1;resizeParentMax=0;resizeLast=0;collapsible=1;marginBottom=0;whiteSpace=wrap;html=1;gradientColor=none;swimlaneLine=1;glass=0;sketch=0;rounded=0;fillColor=default;fillStyle=solid;swimlaneFillColor=default;" parent="1" vertex="1"><mxGeometry x="515" y="630" width="210" height="120" as="geometry"/></mxCell><mxCell id="SriwQ8CFZGS_IUmqfCnP-12" value="Item 1" style="text;strokeColor=none;fillColor=none;align=left;verticalAlign=middle;spacingLeft=4;spacingRight=4;overflow=hidden;points=[[0,0.5],[1,0.5]];portConstraint=eastwest;rotatable=0;whiteSpace=wrap;html=1;" parent="SriwQ8CFZGS_IUmqfCnP-11" vertex="1"><mxGeometry y="30" width="210" height="30" as="geometry"/></mxCell><mxCell id="SriwQ8CFZGS_IUmqfCnP-13" value="Item 2" style="text;strokeColor=none;fillColor=none;align=left;verticalAlign=middle;spacingLeft=4;spacingRight=4;overflow=hidden;points=[[0,0.5],[1,0.5]];portConstraint=eastwest;rotatable=0;whiteSpace=wrap;html=1;" parent="SriwQ8CFZGS_IUmqfCnP-11" vertex="1"><mxGeometry y="60" width="210" height="30" as="geometry"/></mxCell><mxCell id="SriwQ8CFZGS_IUmqfCnP-14" value="Item 3" style="text;strokeColor=none;fillColor=none;align=left;verticalAlign=middle;spacingLeft=4;spacingRight=4;overflow=hidden;points=[[0,0.5],[1,0.5]];portConstraint=eastwest;rotatable=0;whiteSpace=wrap;html=1;" parent="SriwQ8CFZGS_IUmqfCnP-11" vertex="1"><mxGeometry y="90" width="210" height="30" as="geometry"/></mxCell><mxCell id="gR_Tg4eMF0vi53ElfXbl-24" style="edgeStyle=orthogonalEdgeStyle;rounded=0;orthogonalLoop=1;jettySize=auto;html=1;exitX=1;exitY=0.5;exitDx=0;exitDy=0;entryX=0;entryY=0.5;entryDx=0;entryDy=0;" parent="1" source="gR_Tg4eMF0vi53ElfXbl-14" target="gR_Tg4eMF0vi53ElfXbl-18" edge="1"><mxGeometry relative="1" as="geometry"/></mxCell><mxCell id="gR_Tg4eMF0vi53ElfXbl-26" value="If Demon" style="edgeLabel;html=1;align=center;verticalAlign=middle;resizable=0;points=[];" parent="gR_Tg4eMF0vi53ElfXbl-24" vertex="1" connectable="0"><mxGeometry x="-0.3508" relative="1" as="geometry"><mxPoint x="42" as="offset"/></mxGeometry></mxCell><mxCell id="gR_Tg4eMF0vi53ElfXbl-14" value="Knight" style="rounded=0;whiteSpace=wrap;html=1;glass=0;sketch=0;fillStyle=solid;fillColor=default;gradientColor=none;" parent="1" vertex="1"><mxGeometry x="880" y="470" width="120" height="60" as="geometry"/></mxCell><mxCell id="gR_Tg4eMF0vi53ElfXbl-25" style="edgeStyle=orthogonalEdgeStyle;rounded=0;orthogonalLoop=1;jettySize=auto;html=1;exitX=1;exitY=0.5;exitDx=0;exitDy=0;entryX=0;entryY=0.5;entryDx=0;entryDy=0;" parent="1" source="gR_Tg4eMF0vi53ElfXbl-15" target="gR_Tg4eMF0vi53ElfXbl-17" edge="1"><mxGeometry relative="1" as="geometry"/></mxCell><mxCell id="gR_Tg4eMF0vi53ElfXbl-27" value="If Ursoid" style="edgeLabel;html=1;align=center;verticalAlign=middle;resizable=0;points=[];" parent="gR_Tg4eMF0vi53ElfXbl-25" vertex="1" connectable="0"><mxGeometry x="-0.2778" y="1" relative="1" as="geometry"><mxPoint x="35" y="1" as="offset"/></mxGeometry></mxCell><mxCell id="gR_Tg4eMF0vi53ElfXbl-15" value="Barbarian" style="rounded=0;whiteSpace=wrap;html=1;glass=0;sketch=0;fillStyle=solid;fillColor=default;gradientColor=none;" parent="1" vertex="1"><mxGeometry x="880" y="370" width="120" height="60" as="geometry"/></mxCell><mxCell id="gR_Tg4eMF0vi53ElfXbl-23" style="edgeStyle=orthogonalEdgeStyle;rounded=0;orthogonalLoop=1;jettySize=auto;html=1;exitX=1;exitY=0.5;exitDx=0;exitDy=0;entryX=0;entryY=0.5;entryDx=0;entryDy=0;" parent="1" source="gR_Tg4eMF0vi53ElfXbl-16" target="gR_Tg4eMF0vi53ElfXbl-19" edge="1"><mxGeometry relative="1" as="geometry"/></mxCell><mxCell id="gR_Tg4eMF0vi53ElfXbl-28" value="If Human" style="edgeLabel;html=1;align=center;verticalAlign=middle;resizable=0;points=[];" parent="gR_Tg4eMF0vi53ElfXbl-23" vertex="1" connectable="0"><mxGeometry x="-0.3" y="-3" relative="1" as="geometry"><mxPoint x="37" y="-3" as="offset"/></mxGeometry></mxCell><mxCell id="gR_Tg4eMF0vi53ElfXbl-16" value="Templar" style="rounded=0;whiteSpace=wrap;html=1;glass=0;sketch=0;fillStyle=solid;fillColor=default;gradientColor=none;" parent="1" vertex="1"><mxGeometry x="880" y="570" width="120" height="60" as="geometry"/></mxCell><mxCell id="gR_Tg4eMF0vi53ElfXbl-17" value="Ursoid Fighter" style="rounded=0;whiteSpace=wrap;html=1;glass=0;sketch=0;fillStyle=solid;fillColor=default;gradientColor=none;" parent="1" vertex="1"><mxGeometry x="1180" y="370" width="120" height="60" as="geometry"/></mxCell><mxCell id="gR_Tg4eMF0vi53ElfXbl-18" value="Demon Knight" style="rounded=0;whiteSpace=wrap;html=1;glass=0;sketch=0;fillStyle=solid;fillColor=default;gradientColor=none;" parent="1" vertex="1"><mxGeometry x="1180" y="470" width="120" height="60" as="geometry"/></mxCell><mxCell id="gR_Tg4eMF0vi53ElfXbl-19" value="Inquisitor" style="rounded=0;whiteSpace=wrap;html=1;glass=0;sketch=0;fillStyle=solid;fillColor=default;gradientColor=none;" parent="1" vertex="1"><mxGeometry x="1180" y="570" width="120" height="60" as="geometry"/></mxCell></root></mxGraphModel></diagram><diagram id="FcJxl5msRnl0oX1QdaaK" name="Knight"><mxGraphModel dx="2618" dy="1594" grid="1" gridSize="10" guides="1" tooltips="1" connect="1" arrows="1" fold="1" page="1" pageScale="1" pageWidth="850" pageHeight="1100" math="0" shadow="0"><root><mxCell id="0"/><mxCell id="1" parent="0"/><mxCell id="PhieLUfcyVd1kOK2GIvn-3" style="edgeStyle=orthogonalEdgeStyle;rounded=0;orthogonalLoop=1;jettySize=auto;html=1;exitX=0.5;exitY=0;exitDx=0;exitDy=0;entryX=0.5;entryY=1;entryDx=0;entryDy=0;" parent="1" source="4IOKIaXH8vZhWP5bLbpA-1" target="PhieLUfcyVd1kOK2GIvn-1" edge="1"><mxGeometry relative="1" as="geometry"/></mxCell><mxCell id="PhieLUfcyVd1kOK2GIvn-5" value="If Demon&lt;br&gt;Able to choose" style="edgeLabel;html=1;align=center;verticalAlign=middle;resizable=0;points=[];" parent="PhieLUfcyVd1kOK2GIvn-3" vertex="1" connectable="0"><mxGeometry x="-0.1652" relative="1" as="geometry"><mxPoint y="-14" as="offset"/></mxGeometry></mxCell><mxCell id="0wtNr_25l1Ox1gxMVWFG-1" style="edgeStyle=orthogonalEdgeStyle;rounded=0;orthogonalLoop=1;jettySize=auto;html=1;exitX=1;exitY=0.5;exitDx=0;exitDy=0;entryX=0;entryY=0.5;entryDx=0;entryDy=0;" edge="1" parent="1" source="4IOKIaXH8vZhWP5bLbpA-1" target="rrbJoV4swXQSt8pBFbw4-1"><mxGeometry relative="1" as="geometry"/></mxCell><mxCell id="aAg_9o9StiVdUbAtSvIX-36" style="edgeStyle=orthogonalEdgeStyle;rounded=0;orthogonalLoop=1;jettySize=auto;html=1;exitX=0.5;exitY=1;exitDx=0;exitDy=0;entryX=0.5;entryY=0;entryDx=0;entryDy=0;" edge="1" parent="1" source="4IOKIaXH8vZhWP5bLbpA-1" target="aAg_9o9StiVdUbAtSvIX-26"><mxGeometry relative="1" as="geometry"/></mxCell><mxCell id="4IOKIaXH8vZhWP5bLbpA-1" value="Knight" style="rounded=0;whiteSpace=wrap;html=1;glass=0;sketch=0;fillStyle=solid;fillColor=default;gradientColor=none;" parent="1" vertex="1"><mxGeometry x="20" y="510" width="120" height="60" as="geometry"/></mxCell><mxCell id="aAg_9o9StiVdUbAtSvIX-73" style="edgeStyle=orthogonalEdgeStyle;rounded=0;orthogonalLoop=1;jettySize=auto;html=1;exitX=1;exitY=0.5;exitDx=0;exitDy=0;entryX=0.5;entryY=0;entryDx=0;entryDy=0;" edge="1" parent="1" source="PhieLUfcyVd1kOK2GIvn-1" target="aAg_9o9StiVdUbAtSvIX-52"><mxGeometry relative="1" as="geometry"/></mxCell><mxCell id="aAg_9o9StiVdUbAtSvIX-75" style="edgeStyle=orthogonalEdgeStyle;rounded=0;orthogonalLoop=1;jettySize=auto;html=1;exitX=1;exitY=0.5;exitDx=0;exitDy=0;entryX=0.5;entryY=0;entryDx=0;entryDy=0;" edge="1" parent="1" source="PhieLUfcyVd1kOK2GIvn-1" target="aAg_9o9StiVdUbAtSvIX-60"><mxGeometry relative="1" as="geometry"/></mxCell><mxCell id="aAg_9o9StiVdUbAtSvIX-77" style="edgeStyle=orthogonalEdgeStyle;rounded=0;orthogonalLoop=1;jettySize=auto;html=1;exitX=1;exitY=0.5;exitDx=0;exitDy=0;entryX=0.5;entryY=0;entryDx=0;entryDy=0;" edge="1" parent="1" source="PhieLUfcyVd1kOK2GIvn-1" target="aAg_9o9StiVdUbAtSvIX-68"><mxGeometry relative="1" as="geometry"/></mxCell><mxCell id="aAg_9o9StiVdUbAtSvIX-83" style="edgeStyle=orthogonalEdgeStyle;rounded=0;orthogonalLoop=1;jettySize=auto;html=1;exitX=1;exitY=0.5;exitDx=0;exitDy=0;entryX=0.5;entryY=0;entryDx=0;entryDy=0;" edge="1" parent="1" source="PhieLUfcyVd1kOK2GIvn-1" target="aAg_9o9StiVdUbAtSvIX-1"><mxGeometry relative="1" as="geometry"/></mxCell><mxCell id="aAg_9o9StiVdUbAtSvIX-84" style="edgeStyle=orthogonalEdgeStyle;rounded=0;orthogonalLoop=1;jettySize=auto;html=1;exitX=1;exitY=0.5;exitDx=0;exitDy=0;entryX=0.5;entryY=0;entryDx=0;entryDy=0;" edge="1" parent="1" source="PhieLUfcyVd1kOK2GIvn-1" target="aAg_9o9StiVdUbAtSvIX-5"><mxGeometry relative="1" as="geometry"/></mxCell><mxCell id="aAg_9o9StiVdUbAtSvIX-85" style="edgeStyle=orthogonalEdgeStyle;rounded=0;orthogonalLoop=1;jettySize=auto;html=1;exitX=1;exitY=0.5;exitDx=0;exitDy=0;entryX=0.5;entryY=0;entryDx=0;entryDy=0;" edge="1" parent="1" source="PhieLUfcyVd1kOK2GIvn-1" target="aAg_9o9StiVdUbAtSvIX-9"><mxGeometry relative="1" as="geometry"/></mxCell><mxCell id="aAg_9o9StiVdUbAtSvIX-86" style="edgeStyle=orthogonalEdgeStyle;rounded=0;orthogonalLoop=1;jettySize=auto;html=1;exitX=1;exitY=0.5;exitDx=0;exitDy=0;entryX=0.5;entryY=0;entryDx=0;entryDy=0;" edge="1" parent="1" source="PhieLUfcyVd1kOK2GIvn-1" target="aAg_9o9StiVdUbAtSvIX-13"><mxGeometry relative="1" as="geometry"/></mxCell><mxCell id="aAg_9o9StiVdUbAtSvIX-87" style="edgeStyle=orthogonalEdgeStyle;rounded=0;orthogonalLoop=1;jettySize=auto;html=1;exitX=1;exitY=0.5;exitDx=0;exitDy=0;entryX=0.5;entryY=0;entryDx=0;entryDy=0;" edge="1" parent="1" source="PhieLUfcyVd1kOK2GIvn-1" target="aAg_9o9StiVdUbAtSvIX-17"><mxGeometry relative="1" as="geometry"/></mxCell><mxCell id="PhieLUfcyVd1kOK2GIvn-1" value="Demon Knight" style="rounded=0;whiteSpace=wrap;html=1;glass=0;sketch=0;fillStyle=solid;fillColor=default;gradientColor=none;" parent="1" vertex="1"><mxGeometry x="20" y="40" width="120" height="60" as="geometry"/></mxCell><mxCell id="0wtNr_25l1Ox1gxMVWFG-2" style="edgeStyle=orthogonalEdgeStyle;rounded=0;orthogonalLoop=1;jettySize=auto;html=1;exitX=1;exitY=0.5;exitDx=0;exitDy=0;entryX=0;entryY=0.5;entryDx=0;entryDy=0;" edge="1" parent="1" source="rrbJoV4swXQSt8pBFbw4-1" target="rrbJoV4swXQSt8pBFbw4-2"><mxGeometry relative="1" as="geometry"/></mxCell><mxCell id="aAg_9o9StiVdUbAtSvIX-51" style="edgeStyle=orthogonalEdgeStyle;rounded=0;orthogonalLoop=1;jettySize=auto;html=1;exitX=0.5;exitY=0;exitDx=0;exitDy=0;entryX=0.5;entryY=1;entryDx=0;entryDy=0;" edge="1" parent="1" source="rrbJoV4swXQSt8pBFbw4-1" target="aAg_9o9StiVdUbAtSvIX-1"><mxGeometry relative="1" as="geometry"/></mxCell><mxCell id="rrbJoV4swXQSt8pBFbw4-1" value="lvl.20" style="ellipse;whiteSpace=wrap;html=1;gradientColor=none;" parent="1" vertex="1"><mxGeometry x="250" y="510" width="120" height="60" as="geometry"/></mxCell><mxCell id="0wtNr_25l1Ox1gxMVWFG-3" style="edgeStyle=orthogonalEdgeStyle;rounded=0;orthogonalLoop=1;jettySize=auto;html=1;exitX=1;exitY=0.5;exitDx=0;exitDy=0;entryX=0;entryY=0.5;entryDx=0;entryDy=0;" edge="1" parent="1" source="rrbJoV4swXQSt8pBFbw4-2" target="rrbJoV4swXQSt8pBFbw4-3"><mxGeometry relative="1" as="geometry"/></mxCell><mxCell id="aAg_9o9StiVdUbAtSvIX-25" style="edgeStyle=orthogonalEdgeStyle;rounded=0;orthogonalLoop=1;jettySize=auto;html=1;exitX=0.5;exitY=0;exitDx=0;exitDy=0;entryX=0.5;entryY=1;entryDx=0;entryDy=0;" edge="1" parent="1" source="rrbJoV4swXQSt8pBFbw4-2" target="aAg_9o9StiVdUbAtSvIX-5"><mxGeometry relative="1" as="geometry"/></mxCell><mxCell id="rrbJoV4swXQSt8pBFbw4-2" value="lvl.25" style="ellipse;whiteSpace=wrap;html=1;gradientColor=none;" parent="1" vertex="1"><mxGeometry x="490" y="510" width="120" height="60" as="geometry"/></mxCell><mxCell id="0wtNr_25l1Ox1gxMVWFG-4" style="edgeStyle=orthogonalEdgeStyle;rounded=0;orthogonalLoop=1;jettySize=auto;html=1;exitX=1;exitY=0.5;exitDx=0;exitDy=0;entryX=0;entryY=0.5;entryDx=0;entryDy=0;" edge="1" parent="1" source="rrbJoV4swXQSt8pBFbw4-3" target="rrbJoV4swXQSt8pBFbw4-4"><mxGeometry relative="1" as="geometry"/></mxCell><mxCell id="aAg_9o9StiVdUbAtSvIX-50" style="edgeStyle=orthogonalEdgeStyle;rounded=0;orthogonalLoop=1;jettySize=auto;html=1;exitX=0.5;exitY=0;exitDx=0;exitDy=0;entryX=0.5;entryY=1;entryDx=0;entryDy=0;" edge="1" parent="1" source="rrbJoV4swXQSt8pBFbw4-3" target="aAg_9o9StiVdUbAtSvIX-9"><mxGeometry relative="1" as="geometry"/></mxCell><mxCell id="rrbJoV4swXQSt8pBFbw4-3" value="lvl.30" style="ellipse;whiteSpace=wrap;html=1;gradientColor=none;" parent="1" vertex="1"><mxGeometry x="730" y="510" width="120" height="60" as="geometry"/></mxCell><mxCell id="0wtNr_25l1Ox1gxMVWFG-5" style="edgeStyle=orthogonalEdgeStyle;rounded=0;orthogonalLoop=1;jettySize=auto;html=1;exitX=1;exitY=0.5;exitDx=0;exitDy=0;entryX=0;entryY=0.5;entryDx=0;entryDy=0;" edge="1" parent="1" source="rrbJoV4swXQSt8pBFbw4-4" target="rrbJoV4swXQSt8pBFbw4-5"><mxGeometry relative="1" as="geometry"/></mxCell><mxCell id="aAg_9o9StiVdUbAtSvIX-24" style="edgeStyle=orthogonalEdgeStyle;rounded=0;orthogonalLoop=1;jettySize=auto;html=1;exitX=0.5;exitY=0;exitDx=0;exitDy=0;entryX=0.5;entryY=1;entryDx=0;entryDy=0;" edge="1" parent="1" source="rrbJoV4swXQSt8pBFbw4-4" target="aAg_9o9StiVdUbAtSvIX-13"><mxGeometry relative="1" as="geometry"/></mxCell><mxCell id="rrbJoV4swXQSt8pBFbw4-4" value="lvl. 35" style="ellipse;whiteSpace=wrap;html=1;gradientColor=none;" parent="1" vertex="1"><mxGeometry x="970" y="510" width="120" height="60" as="geometry"/></mxCell><mxCell id="0wtNr_25l1Ox1gxMVWFG-6" style="edgeStyle=orthogonalEdgeStyle;rounded=0;orthogonalLoop=1;jettySize=auto;html=1;exitX=1;exitY=0.5;exitDx=0;exitDy=0;entryX=0;entryY=0.5;entryDx=0;entryDy=0;" edge="1" parent="1" source="rrbJoV4swXQSt8pBFbw4-5" target="rrbJoV4swXQSt8pBFbw4-6"><mxGeometry relative="1" as="geometry"/></mxCell><mxCell id="aAg_9o9StiVdUbAtSvIX-49" style="edgeStyle=orthogonalEdgeStyle;rounded=0;orthogonalLoop=1;jettySize=auto;html=1;exitX=0.5;exitY=0;exitDx=0;exitDy=0;entryX=0.5;entryY=1;entryDx=0;entryDy=0;" edge="1" parent="1" source="rrbJoV4swXQSt8pBFbw4-5" target="aAg_9o9StiVdUbAtSvIX-17"><mxGeometry relative="1" as="geometry"/></mxCell><mxCell id="rrbJoV4swXQSt8pBFbw4-5" value="lvl.40" style="ellipse;whiteSpace=wrap;html=1;gradientColor=none;" parent="1" vertex="1"><mxGeometry x="1210" y="510" width="120" height="60" as="geometry"/></mxCell><mxCell id="rrbJoV4swXQSt8pBFbw4-6" value="Class Advancement" style="triangle;whiteSpace=wrap;html=1;rounded=0;glass=0;sketch=0;fillStyle=solid;fillColor=default;gradientColor=none;" parent="1" vertex="1"><mxGeometry x="1420" y="500" width="120" height="80" as="geometry"/></mxCell><mxCell id="aAg_9o9StiVdUbAtSvIX-1" value="List" style="swimlane;fontStyle=0;childLayout=stackLayout;horizontal=1;startSize=30;horizontalStack=0;resizeParent=1;resizeParentMax=0;resizeLast=0;collapsible=1;marginBottom=0;whiteSpace=wrap;html=1;gradientColor=none;swimlaneLine=1;glass=0;sketch=0;rounded=0;fillColor=default;fillStyle=solid;swimlaneFillColor=default;" vertex="1" parent="1"><mxGeometry x="205" y="300" width="210" height="90" as="geometry"/></mxCell><mxCell id="aAg_9o9StiVdUbAtSvIX-2" value="Sword: Sword Rush - 3 SP" style="text;strokeColor=none;fillColor=none;align=left;verticalAlign=middle;spacingLeft=4;spacingRight=4;overflow=hidden;points=[[0,0.5],[1,0.5]];portConstraint=eastwest;rotatable=0;whiteSpace=wrap;html=1;" vertex="1" parent="aAg_9o9StiVdUbAtSvIX-1"><mxGeometry y="30" width="210" height="30" as="geometry"/></mxCell><mxCell id="aAg_9o9StiVdUbAtSvIX-3" value="Item 2" style="text;strokeColor=none;fillColor=none;align=left;verticalAlign=middle;spacingLeft=4;spacingRight=4;overflow=hidden;points=[[0,0.5],[1,0.5]];portConstraint=eastwest;rotatable=0;whiteSpace=wrap;html=1;" vertex="1" parent="aAg_9o9StiVdUbAtSvIX-1"><mxGeometry y="60" width="210" height="30" as="geometry"/></mxCell><mxCell id="aAg_9o9StiVdUbAtSvIX-5" value="List" style="swimlane;fontStyle=0;childLayout=stackLayout;horizontal=1;startSize=30;horizontalStack=0;resizeParent=1;resizeParentMax=0;resizeLast=0;collapsible=1;marginBottom=0;whiteSpace=wrap;html=1;gradientColor=none;swimlaneLine=1;glass=0;sketch=0;rounded=0;fillColor=default;fillStyle=solid;swimlaneFillColor=default;" vertex="1" parent="1"><mxGeometry x="445" y="300" width="210" height="90" as="geometry"/></mxCell><mxCell id="aAg_9o9StiVdUbAtSvIX-6" value="Shield: Stalwart Shield - 2 SP" style="text;strokeColor=none;fillColor=none;align=left;verticalAlign=middle;spacingLeft=4;spacingRight=4;overflow=hidden;points=[[0,0.5],[1,0.5]];portConstraint=eastwest;rotatable=0;whiteSpace=wrap;html=1;" vertex="1" parent="aAg_9o9StiVdUbAtSvIX-5"><mxGeometry y="30" width="210" height="30" as="geometry"/></mxCell><mxCell id="aAg_9o9StiVdUbAtSvIX-7" value="Status: Speed Up:&amp;nbsp;" style="text;strokeColor=none;fillColor=none;align=left;verticalAlign=middle;spacingLeft=4;spacingRight=4;overflow=hidden;points=[[0,0.5],[1,0.5]];portConstraint=eastwest;rotatable=0;whiteSpace=wrap;html=1;" vertex="1" parent="aAg_9o9StiVdUbAtSvIX-5"><mxGeometry y="60" width="210" height="30" as="geometry"/></mxCell><mxCell id="aAg_9o9StiVdUbAtSvIX-9" value="List" style="swimlane;fontStyle=0;childLayout=stackLayout;horizontal=1;startSize=30;horizontalStack=0;resizeParent=1;resizeParentMax=0;resizeLast=0;collapsible=1;marginBottom=0;whiteSpace=wrap;html=1;gradientColor=none;swimlaneLine=1;glass=0;sketch=0;rounded=0;fillColor=default;fillStyle=solid;swimlaneFillColor=default;" vertex="1" parent="1"><mxGeometry x="685" y="300" width="210" height="90" as="geometry"/></mxCell><mxCell id="aAg_9o9StiVdUbAtSvIX-10" value="Status: Armor Up - 2 SP" style="text;strokeColor=none;fillColor=none;align=left;verticalAlign=middle;spacingLeft=4;spacingRight=4;overflow=hidden;points=[[0,0.5],[1,0.5]];portConstraint=eastwest;rotatable=0;whiteSpace=wrap;html=1;" vertex="1" parent="aAg_9o9StiVdUbAtSvIX-9"><mxGeometry y="30" width="210" height="30" as="geometry"/></mxCell><mxCell id="aAg_9o9StiVdUbAtSvIX-11" value="Item 2" style="text;strokeColor=none;fillColor=none;align=left;verticalAlign=middle;spacingLeft=4;spacingRight=4;overflow=hidden;points=[[0,0.5],[1,0.5]];portConstraint=eastwest;rotatable=0;whiteSpace=wrap;html=1;" vertex="1" parent="aAg_9o9StiVdUbAtSvIX-9"><mxGeometry y="60" width="210" height="30" as="geometry"/></mxCell><mxCell id="aAg_9o9StiVdUbAtSvIX-13" value="List" style="swimlane;fontStyle=0;childLayout=stackLayout;horizontal=1;startSize=30;horizontalStack=0;resizeParent=1;resizeParentMax=0;resizeLast=0;collapsible=1;marginBottom=0;whiteSpace=wrap;html=1;gradientColor=none;swimlaneLine=1;glass=0;sketch=0;rounded=0;fillColor=default;fillStyle=solid;swimlaneFillColor=default;" vertex="1" parent="1"><mxGeometry x="925" y="300" width="210" height="90" as="geometry"/></mxCell><mxCell id="aAg_9o9StiVdUbAtSvIX-14" value="Shield: Guardian Knight - 1 SP" style="text;strokeColor=none;fillColor=none;align=left;verticalAlign=middle;spacingLeft=4;spacingRight=4;overflow=hidden;points=[[0,0.5],[1,0.5]];portConstraint=eastwest;rotatable=0;whiteSpace=wrap;html=1;" vertex="1" parent="aAg_9o9StiVdUbAtSvIX-13"><mxGeometry y="30" width="210" height="30" as="geometry"/></mxCell><mxCell id="aAg_9o9StiVdUbAtSvIX-15" value="Item 2" style="text;strokeColor=none;fillColor=none;align=left;verticalAlign=middle;spacingLeft=4;spacingRight=4;overflow=hidden;points=[[0,0.5],[1,0.5]];portConstraint=eastwest;rotatable=0;whiteSpace=wrap;html=1;" vertex="1" parent="aAg_9o9StiVdUbAtSvIX-13"><mxGeometry y="60" width="210" height="30" as="geometry"/></mxCell><mxCell id="aAg_9o9StiVdUbAtSvIX-17" value="List" style="swimlane;fontStyle=0;childLayout=stackLayout;horizontal=1;startSize=30;horizontalStack=0;resizeParent=1;resizeParentMax=0;resizeLast=0;collapsible=1;marginBottom=0;whiteSpace=wrap;html=1;gradientColor=none;swimlaneLine=1;glass=0;sketch=0;rounded=0;fillColor=default;fillStyle=solid;swimlaneFillColor=default;" vertex="1" parent="1"><mxGeometry x="1165" y="300" width="210" height="90" as="geometry"/></mxCell><mxCell id="aAg_9o9StiVdUbAtSvIX-18" value="Sword: Judgement Blade - 4 SP&amp;nbsp;" style="text;strokeColor=none;fillColor=none;align=left;verticalAlign=middle;spacingLeft=4;spacingRight=4;overflow=hidden;points=[[0,0.5],[1,0.5]];portConstraint=eastwest;rotatable=0;whiteSpace=wrap;html=1;" vertex="1" parent="aAg_9o9StiVdUbAtSvIX-17"><mxGeometry y="30" width="210" height="30" as="geometry"/></mxCell><mxCell id="aAg_9o9StiVdUbAtSvIX-19" value="Item 2" style="text;strokeColor=none;fillColor=none;align=left;verticalAlign=middle;spacingLeft=4;spacingRight=4;overflow=hidden;points=[[0,0.5],[1,0.5]];portConstraint=eastwest;rotatable=0;whiteSpace=wrap;html=1;" vertex="1" parent="aAg_9o9StiVdUbAtSvIX-17"><mxGeometry y="60" width="210" height="30" as="geometry"/></mxCell><mxCell id="aAg_9o9StiVdUbAtSvIX-26" value="List" style="swimlane;fontStyle=0;childLayout=stackLayout;horizontal=1;startSize=30;horizontalStack=0;resizeParent=1;resizeParentMax=0;resizeLast=0;collapsible=1;marginBottom=0;whiteSpace=wrap;html=1;swimlaneFillColor=default;" vertex="1" parent="1"><mxGeometry x="10" y="650" width="140" height="150" as="geometry"/></mxCell><mxCell id="aAg_9o9StiVdUbAtSvIX-27" value="Sword Up: Status" style="text;strokeColor=none;fillColor=none;align=left;verticalAlign=middle;spacingLeft=4;spacingRight=4;overflow=hidden;points=[[0,0.5],[1,0.5]];portConstraint=eastwest;rotatable=0;whiteSpace=wrap;html=1;" vertex="1" parent="aAg_9o9StiVdUbAtSvIX-26"><mxGeometry y="30" width="140" height="30" as="geometry"/></mxCell><mxCell id="aAg_9o9StiVdUbAtSvIX-28" value="Shield Up: Status" style="text;strokeColor=none;fillColor=none;align=left;verticalAlign=middle;spacingLeft=4;spacingRight=4;overflow=hidden;points=[[0,0.5],[1,0.5]];portConstraint=eastwest;rotatable=0;whiteSpace=wrap;html=1;" vertex="1" parent="aAg_9o9StiVdUbAtSvIX-26"><mxGeometry y="60" width="140" height="30" as="geometry"/></mxCell><mxCell id="aAg_9o9StiVdUbAtSvIX-29" value="Armor Up: Status" style="text;strokeColor=none;fillColor=none;align=left;verticalAlign=middle;spacingLeft=4;spacingRight=4;overflow=hidden;points=[[0,0.5],[1,0.5]];portConstraint=eastwest;rotatable=0;whiteSpace=wrap;html=1;" vertex="1" parent="aAg_9o9StiVdUbAtSvIX-26"><mxGeometry y="90" width="140" height="30" as="geometry"/></mxCell><mxCell id="aAg_9o9StiVdUbAtSvIX-30" value="Magic Defence Down: Status" style="text;strokeColor=none;fillColor=none;align=left;verticalAlign=middle;spacingLeft=4;spacingRight=4;overflow=hidden;points=[[0,0.5],[1,0.5]];portConstraint=eastwest;rotatable=0;whiteSpace=wrap;html=1;" vertex="1" parent="aAg_9o9StiVdUbAtSvIX-26"><mxGeometry y="120" width="140" height="30" as="geometry"/></mxCell><mxCell id="aAg_9o9StiVdUbAtSvIX-32" value="List" style="swimlane;fontStyle=0;childLayout=stackLayout;horizontal=1;startSize=30;horizontalStack=0;resizeParent=1;resizeParentMax=0;resizeLast=0;collapsible=1;marginBottom=0;whiteSpace=wrap;html=1;swimlaneFillColor=default;" vertex="1" parent="1"><mxGeometry x="-150" y="90" width="140" height="180" as="geometry"/></mxCell><mxCell id="aAg_9o9StiVdUbAtSvIX-33" value="Fire: Spell" style="text;strokeColor=none;fillColor=none;align=left;verticalAlign=middle;spacingLeft=4;spacingRight=4;overflow=hidden;points=[[0,0.5],[1,0.5]];portConstraint=eastwest;rotatable=0;whiteSpace=wrap;html=1;" vertex="1" parent="aAg_9o9StiVdUbAtSvIX-32"><mxGeometry y="30" width="140" height="30" as="geometry"/></mxCell><mxCell id="aAg_9o9StiVdUbAtSvIX-45" value="Sword Up: Status" style="text;strokeColor=none;fillColor=none;align=left;verticalAlign=middle;spacingLeft=4;spacingRight=4;overflow=hidden;points=[[0,0.5],[1,0.5]];portConstraint=eastwest;rotatable=0;whiteSpace=wrap;html=1;" vertex="1" parent="aAg_9o9StiVdUbAtSvIX-32"><mxGeometry y="60" width="140" height="30" as="geometry"/></mxCell><mxCell id="aAg_9o9StiVdUbAtSvIX-48" value="Shield Up: Status" style="text;strokeColor=none;fillColor=none;align=left;verticalAlign=middle;spacingLeft=4;spacingRight=4;overflow=hidden;points=[[0,0.5],[1,0.5]];portConstraint=eastwest;rotatable=0;whiteSpace=wrap;html=1;" vertex="1" parent="aAg_9o9StiVdUbAtSvIX-32"><mxGeometry y="90" width="140" height="30" as="geometry"/></mxCell><mxCell id="aAg_9o9StiVdUbAtSvIX-46" value="Armor Up: Status" style="text;strokeColor=none;fillColor=none;align=left;verticalAlign=middle;spacingLeft=4;spacingRight=4;overflow=hidden;points=[[0,0.5],[1,0.5]];portConstraint=eastwest;rotatable=0;whiteSpace=wrap;html=1;" vertex="1" parent="aAg_9o9StiVdUbAtSvIX-32"><mxGeometry y="120" width="140" height="30" as="geometry"/></mxCell><mxCell id="aAg_9o9StiVdUbAtSvIX-47" value="Magic Defence Down: Status" style="text;strokeColor=none;fillColor=none;align=left;verticalAlign=middle;spacingLeft=4;spacingRight=4;overflow=hidden;points=[[0,0.5],[1,0.5]];portConstraint=eastwest;rotatable=0;whiteSpace=wrap;html=1;" vertex="1" parent="aAg_9o9StiVdUbAtSvIX-32"><mxGeometry y="150" width="140" height="30" as="geometry"/></mxCell><mxCell id="aAg_9o9StiVdUbAtSvIX-39" value="" style="edgeStyle=orthogonalEdgeStyle;rounded=0;orthogonalLoop=1;jettySize=auto;html=1;exitX=0;exitY=0.5;exitDx=0;exitDy=0;entryX=0.5;entryY=0;entryDx=0;entryDy=0;endArrow=none;" edge="1" parent="1" source="PhieLUfcyVd1kOK2GIvn-1" target="aAg_9o9StiVdUbAtSvIX-32"><mxGeometry relative="1" as="geometry"><mxPoint x="20" y="70" as="sourcePoint"/><mxPoint x="80" y="650" as="targetPoint"/><Array as="points"/></mxGeometry></mxCell><mxCell id="aAg_9o9StiVdUbAtSvIX-52" value="List" style="swimlane;fontStyle=0;childLayout=stackLayout;horizontal=1;startSize=30;horizontalStack=0;resizeParent=1;resizeParentMax=0;resizeLast=0;collapsible=1;marginBottom=0;whiteSpace=wrap;html=1;gradientColor=none;swimlaneLine=1;glass=0;sketch=0;rounded=0;fillColor=default;fillStyle=solid;swimlaneFillColor=default;" vertex="1" parent="1"><mxGeometry x="205" y="100" width="210" height="60" as="geometry"/></mxCell><mxCell id="aAg_9o9StiVdUbAtSvIX-53" value="Fire Aspect" style="text;strokeColor=none;fillColor=none;align=left;verticalAlign=middle;spacingLeft=4;spacingRight=4;overflow=hidden;points=[[0,0.5],[1,0.5]];portConstraint=eastwest;rotatable=0;whiteSpace=wrap;html=1;" vertex="1" parent="aAg_9o9StiVdUbAtSvIX-52"><mxGeometry y="30" width="210" height="30" as="geometry"/></mxCell><mxCell id="aAg_9o9StiVdUbAtSvIX-60" value="List" style="swimlane;fontStyle=0;childLayout=stackLayout;horizontal=1;startSize=30;horizontalStack=0;resizeParent=1;resizeParentMax=0;resizeLast=0;collapsible=1;marginBottom=0;whiteSpace=wrap;html=1;gradientColor=none;swimlaneLine=1;glass=0;sketch=0;rounded=0;fillColor=default;fillStyle=solid;swimlaneFillColor=default;" vertex="1" parent="1"><mxGeometry x="685" y="100" width="210" height="60" as="geometry"/></mxCell><mxCell id="aAg_9o9StiVdUbAtSvIX-61" value="Flame Armor" style="text;strokeColor=none;fillColor=none;align=left;verticalAlign=middle;spacingLeft=4;spacingRight=4;overflow=hidden;points=[[0,0.5],[1,0.5]];portConstraint=eastwest;rotatable=0;whiteSpace=wrap;html=1;" vertex="1" parent="aAg_9o9StiVdUbAtSvIX-60"><mxGeometry y="30" width="210" height="30" as="geometry"/></mxCell><mxCell id="aAg_9o9StiVdUbAtSvIX-68" value="List" style="swimlane;fontStyle=0;childLayout=stackLayout;horizontal=1;startSize=30;horizontalStack=0;resizeParent=1;resizeParentMax=0;resizeLast=0;collapsible=1;marginBottom=0;whiteSpace=wrap;html=1;gradientColor=none;swimlaneLine=1;glass=0;sketch=0;rounded=0;fillColor=default;fillStyle=solid;swimlaneFillColor=default;" vertex="1" parent="1"><mxGeometry x="1165" y="100" width="210" height="60" as="geometry"/></mxCell><mxCell id="aAg_9o9StiVdUbAtSvIX-69" value="Infernal Blade" style="text;strokeColor=none;fillColor=none;align=left;verticalAlign=middle;spacingLeft=4;spacingRight=4;overflow=hidden;points=[[0,0.5],[1,0.5]];portConstraint=eastwest;rotatable=0;whiteSpace=wrap;html=1;" vertex="1" parent="aAg_9o9StiVdUbAtSvIX-68"><mxGeometry y="30" width="210" height="30" as="geometry"/></mxCell><mxCell id="_wgCMb390fs5kBABoAJT-2" value="Demon Lord" style="rounded=0;whiteSpace=wrap;html=1;glass=0;sketch=0;fillStyle=solid;fillColor=default;gradientColor=none;" vertex="1" parent="1"><mxGeometry x="1640" y="40" width="120" height="60" as="geometry"/></mxCell><mxCell id="_wgCMb390fs5kBABoAJT-3" value="Grand Knight" style="rounded=0;whiteSpace=wrap;html=1;glass=0;sketch=0;fillStyle=solid;fillColor=default;gradientColor=none;" vertex="1" parent="1"><mxGeometry x="1640" y="510" width="120" height="60" as="geometry"/></mxCell></root></mxGraphModel></diagram><diagram id="vCFfuaS2XuM0-FeBR7Oy" name="Barbarian"><mxGraphModel dx="3060" dy="1993" grid="1" gridSize="10" guides="1" tooltips="1" connect="1" arrows="1" fold="1" page="1" pageScale="1" pageWidth="850" pageHeight="1100" math="0" shadow="0"><root><mxCell id="0"/><mxCell id="1" parent="0"/><mxCell id="likvm_ff2hPBOwKEgcOn-1" style="edgeStyle=orthogonalEdgeStyle;rounded=0;orthogonalLoop=1;jettySize=auto;html=1;exitX=0.5;exitY=0;exitDx=0;exitDy=0;entryX=0.5;entryY=1;entryDx=0;entryDy=0;" edge="1" parent="1" source="likvm_ff2hPBOwKEgcOn-5" target="likvm_ff2hPBOwKEgcOn-16"><mxGeometry relative="1" as="geometry"/></mxCell><mxCell id="likvm_ff2hPBOwKEgcOn-2" value="If Demon&lt;br&gt;Able to choose" style="edgeLabel;html=1;align=center;verticalAlign=middle;resizable=0;points=[];" vertex="1" connectable="0" parent="likvm_ff2hPBOwKEgcOn-1"><mxGeometry x="-0.1652" relative="1" as="geometry"><mxPoint y="-14" as="offset"/></mxGeometry></mxCell><mxCell id="likvm_ff2hPBOwKEgcOn-3" style="edgeStyle=orthogonalEdgeStyle;rounded=0;orthogonalLoop=1;jettySize=auto;html=1;exitX=1;exitY=0.5;exitDx=0;exitDy=0;entryX=0;entryY=0.5;entryDx=0;entryDy=0;" edge="1" parent="1" source="likvm_ff2hPBOwKEgcOn-5" target="likvm_ff2hPBOwKEgcOn-19"><mxGeometry relative="1" as="geometry"/></mxCell><mxCell id="likvm_ff2hPBOwKEgcOn-4" style="edgeStyle=orthogonalEdgeStyle;rounded=0;orthogonalLoop=1;jettySize=auto;html=1;exitX=0.5;exitY=1;exitDx=0;exitDy=0;entryX=0.5;entryY=0;entryDx=0;entryDy=0;" edge="1" parent="1" source="likvm_ff2hPBOwKEgcOn-5" target="likvm_ff2hPBOwKEgcOn-53"><mxGeometry relative="1" as="geometry"/></mxCell><mxCell id="likvm_ff2hPBOwKEgcOn-5" value="Knight" style="rounded=0;whiteSpace=wrap;html=1;glass=0;sketch=0;fillStyle=solid;fillColor=default;gradientColor=none;" vertex="1" parent="1"><mxGeometry x="20" y="510" width="120" height="60" as="geometry"/></mxCell><mxCell id="likvm_ff2hPBOwKEgcOn-6" style="edgeStyle=orthogonalEdgeStyle;rounded=0;orthogonalLoop=1;jettySize=auto;html=1;exitX=1;exitY=0.5;exitDx=0;exitDy=0;entryX=0.5;entryY=0;entryDx=0;entryDy=0;" edge="1" parent="1" source="likvm_ff2hPBOwKEgcOn-16" target="likvm_ff2hPBOwKEgcOn-65"><mxGeometry relative="1" as="geometry"/></mxCell><mxCell id="likvm_ff2hPBOwKEgcOn-7" style="edgeStyle=orthogonalEdgeStyle;rounded=0;orthogonalLoop=1;jettySize=auto;html=1;exitX=1;exitY=0.5;exitDx=0;exitDy=0;entryX=0.5;entryY=0;entryDx=0;entryDy=0;" edge="1" parent="1" source="likvm_ff2hPBOwKEgcOn-16" target="likvm_ff2hPBOwKEgcOn-67"><mxGeometry relative="1" as="geometry"/></mxCell><mxCell id="likvm_ff2hPBOwKEgcOn-8" style="edgeStyle=orthogonalEdgeStyle;rounded=0;orthogonalLoop=1;jettySize=auto;html=1;exitX=1;exitY=0.5;exitDx=0;exitDy=0;entryX=0.5;entryY=0;entryDx=0;entryDy=0;" edge="1" parent="1" source="likvm_ff2hPBOwKEgcOn-16" target="likvm_ff2hPBOwKEgcOn-69"><mxGeometry relative="1" as="geometry"/></mxCell><mxCell id="likvm_ff2hPBOwKEgcOn-9" style="edgeStyle=orthogonalEdgeStyle;rounded=0;orthogonalLoop=1;jettySize=auto;html=1;exitX=1;exitY=0.5;exitDx=0;exitDy=0;entryX=0.5;entryY=0;entryDx=0;entryDy=0;" edge="1" parent="1" source="likvm_ff2hPBOwKEgcOn-16" target="likvm_ff2hPBOwKEgcOn-71"><mxGeometry relative="1" as="geometry"/></mxCell><mxCell id="likvm_ff2hPBOwKEgcOn-10" style="edgeStyle=orthogonalEdgeStyle;rounded=0;orthogonalLoop=1;jettySize=auto;html=1;exitX=1;exitY=0.5;exitDx=0;exitDy=0;entryX=0.5;entryY=0;entryDx=0;entryDy=0;" edge="1" parent="1" source="likvm_ff2hPBOwKEgcOn-16" target="likvm_ff2hPBOwKEgcOn-73"><mxGeometry relative="1" as="geometry"/></mxCell><mxCell id="likvm_ff2hPBOwKEgcOn-11" style="edgeStyle=orthogonalEdgeStyle;rounded=0;orthogonalLoop=1;jettySize=auto;html=1;exitX=1;exitY=0.5;exitDx=0;exitDy=0;entryX=0.5;entryY=0;entryDx=0;entryDy=0;" edge="1" parent="1" source="likvm_ff2hPBOwKEgcOn-16" target="likvm_ff2hPBOwKEgcOn-33"><mxGeometry relative="1" as="geometry"/></mxCell><mxCell id="likvm_ff2hPBOwKEgcOn-12" style="edgeStyle=orthogonalEdgeStyle;rounded=0;orthogonalLoop=1;jettySize=auto;html=1;exitX=1;exitY=0.5;exitDx=0;exitDy=0;entryX=0.5;entryY=0;entryDx=0;entryDy=0;" edge="1" parent="1" source="likvm_ff2hPBOwKEgcOn-16" target="likvm_ff2hPBOwKEgcOn-37"><mxGeometry relative="1" as="geometry"/></mxCell><mxCell id="likvm_ff2hPBOwKEgcOn-13" style="edgeStyle=orthogonalEdgeStyle;rounded=0;orthogonalLoop=1;jettySize=auto;html=1;exitX=1;exitY=0.5;exitDx=0;exitDy=0;entryX=0.5;entryY=0;entryDx=0;entryDy=0;" edge="1" parent="1" source="likvm_ff2hPBOwKEgcOn-16" target="likvm_ff2hPBOwKEgcOn-41"><mxGeometry relative="1" as="geometry"/></mxCell><mxCell id="likvm_ff2hPBOwKEgcOn-14" style="edgeStyle=orthogonalEdgeStyle;rounded=0;orthogonalLoop=1;jettySize=auto;html=1;exitX=1;exitY=0.5;exitDx=0;exitDy=0;entryX=0.5;entryY=0;entryDx=0;entryDy=0;" edge="1" parent="1" source="likvm_ff2hPBOwKEgcOn-16" target="likvm_ff2hPBOwKEgcOn-45"><mxGeometry relative="1" as="geometry"/></mxCell><mxCell id="likvm_ff2hPBOwKEgcOn-15" style="edgeStyle=orthogonalEdgeStyle;rounded=0;orthogonalLoop=1;jettySize=auto;html=1;exitX=1;exitY=0.5;exitDx=0;exitDy=0;entryX=0.5;entryY=0;entryDx=0;entryDy=0;" edge="1" parent="1" source="likvm_ff2hPBOwKEgcOn-16" target="likvm_ff2hPBOwKEgcOn-49"><mxGeometry relative="1" as="geometry"/></mxCell><mxCell id="likvm_ff2hPBOwKEgcOn-16" value="Demon Knight" style="rounded=0;whiteSpace=wrap;html=1;glass=0;sketch=0;fillStyle=solid;fillColor=default;gradientColor=none;" vertex="1" parent="1"><mxGeometry x="20" y="40" width="120" height="60" as="geometry"/></mxCell><mxCell id="likvm_ff2hPBOwKEgcOn-17" style="edgeStyle=orthogonalEdgeStyle;rounded=0;orthogonalLoop=1;jettySize=auto;html=1;exitX=1;exitY=0.5;exitDx=0;exitDy=0;entryX=0;entryY=0.5;entryDx=0;entryDy=0;" edge="1" parent="1" source="likvm_ff2hPBOwKEgcOn-19" target="likvm_ff2hPBOwKEgcOn-22"><mxGeometry relative="1" as="geometry"/></mxCell><mxCell id="likvm_ff2hPBOwKEgcOn-18" style="edgeStyle=orthogonalEdgeStyle;rounded=0;orthogonalLoop=1;jettySize=auto;html=1;exitX=0.5;exitY=0;exitDx=0;exitDy=0;entryX=0.5;entryY=1;entryDx=0;entryDy=0;" edge="1" parent="1" source="likvm_ff2hPBOwKEgcOn-19" target="likvm_ff2hPBOwKEgcOn-33"><mxGeometry relative="1" as="geometry"/></mxCell><mxCell id="likvm_ff2hPBOwKEgcOn-19" value="lvl.20" style="ellipse;whiteSpace=wrap;html=1;gradientColor=none;" vertex="1" parent="1"><mxGeometry x="250" y="510" width="120" height="60" as="geometry"/></mxCell><mxCell id="likvm_ff2hPBOwKEgcOn-20" style="edgeStyle=orthogonalEdgeStyle;rounded=0;orthogonalLoop=1;jettySize=auto;html=1;exitX=1;exitY=0.5;exitDx=0;exitDy=0;entryX=0;entryY=0.5;entryDx=0;entryDy=0;" edge="1" parent="1" source="likvm_ff2hPBOwKEgcOn-22" target="likvm_ff2hPBOwKEgcOn-25"><mxGeometry relative="1" as="geometry"/></mxCell><mxCell id="likvm_ff2hPBOwKEgcOn-21" style="edgeStyle=orthogonalEdgeStyle;rounded=0;orthogonalLoop=1;jettySize=auto;html=1;exitX=0.5;exitY=0;exitDx=0;exitDy=0;entryX=0.5;entryY=1;entryDx=0;entryDy=0;" edge="1" parent="1" source="likvm_ff2hPBOwKEgcOn-22" target="likvm_ff2hPBOwKEgcOn-37"><mxGeometry relative="1" as="geometry"/></mxCell><mxCell id="likvm_ff2hPBOwKEgcOn-22" value="lvl.25" style="ellipse;whiteSpace=wrap;html=1;gradientColor=none;" vertex="1" parent="1"><mxGeometry x="490" y="510" width="120" height="60" as="geometry"/></mxCell><mxCell id="likvm_ff2hPBOwKEgcOn-23" style="edgeStyle=orthogonalEdgeStyle;rounded=0;orthogonalLoop=1;jettySize=auto;html=1;exitX=1;exitY=0.5;exitDx=0;exitDy=0;entryX=0;entryY=0.5;entryDx=0;entryDy=0;" edge="1" parent="1" source="likvm_ff2hPBOwKEgcOn-25" target="likvm_ff2hPBOwKEgcOn-28"><mxGeometry relative="1" as="geometry"/></mxCell><mxCell id="likvm_ff2hPBOwKEgcOn-24" style="edgeStyle=orthogonalEdgeStyle;rounded=0;orthogonalLoop=1;jettySize=auto;html=1;exitX=0.5;exitY=0;exitDx=0;exitDy=0;entryX=0.5;entryY=1;entryDx=0;entryDy=0;" edge="1" parent="1" source="likvm_ff2hPBOwKEgcOn-25" target="likvm_ff2hPBOwKEgcOn-41"><mxGeometry relative="1" as="geometry"/></mxCell><mxCell id="likvm_ff2hPBOwKEgcOn-25" value="lvl.30" style="ellipse;whiteSpace=wrap;html=1;gradientColor=none;" vertex="1" parent="1"><mxGeometry x="730" y="510" width="120" height="60" as="geometry"/></mxCell><mxCell id="likvm_ff2hPBOwKEgcOn-26" style="edgeStyle=orthogonalEdgeStyle;rounded=0;orthogonalLoop=1;jettySize=auto;html=1;exitX=1;exitY=0.5;exitDx=0;exitDy=0;entryX=0;entryY=0.5;entryDx=0;entryDy=0;" edge="1" parent="1" source="likvm_ff2hPBOwKEgcOn-28" target="likvm_ff2hPBOwKEgcOn-31"><mxGeometry relative="1" as="geometry"/></mxCell><mxCell id="likvm_ff2hPBOwKEgcOn-27" style="edgeStyle=orthogonalEdgeStyle;rounded=0;orthogonalLoop=1;jettySize=auto;html=1;exitX=0.5;exitY=0;exitDx=0;exitDy=0;entryX=0.5;entryY=1;entryDx=0;entryDy=0;" edge="1" parent="1" source="likvm_ff2hPBOwKEgcOn-28" target="likvm_ff2hPBOwKEgcOn-45"><mxGeometry relative="1" as="geometry"/></mxCell><mxCell id="likvm_ff2hPBOwKEgcOn-28" value="lvl. 35" style="ellipse;whiteSpace=wrap;html=1;gradientColor=none;" vertex="1" parent="1"><mxGeometry x="970" y="510" width="120" height="60" as="geometry"/></mxCell><mxCell id="likvm_ff2hPBOwKEgcOn-29" style="edgeStyle=orthogonalEdgeStyle;rounded=0;orthogonalLoop=1;jettySize=auto;html=1;exitX=1;exitY=0.5;exitDx=0;exitDy=0;entryX=0;entryY=0.5;entryDx=0;entryDy=0;" edge="1" parent="1" source="likvm_ff2hPBOwKEgcOn-31" target="likvm_ff2hPBOwKEgcOn-32"><mxGeometry relative="1" as="geometry"/></mxCell><mxCell id="likvm_ff2hPBOwKEgcOn-30" style="edgeStyle=orthogonalEdgeStyle;rounded=0;orthogonalLoop=1;jettySize=auto;html=1;exitX=0.5;exitY=0;exitDx=0;exitDy=0;entryX=0.5;entryY=1;entryDx=0;entryDy=0;" edge="1" parent="1" source="likvm_ff2hPBOwKEgcOn-31" target="likvm_ff2hPBOwKEgcOn-49"><mxGeometry relative="1" as="geometry"/></mxCell><mxCell id="likvm_ff2hPBOwKEgcOn-31" value="lvl.40" style="ellipse;whiteSpace=wrap;html=1;gradientColor=none;" vertex="1" parent="1"><mxGeometry x="1210" y="510" width="120" height="60" as="geometry"/></mxCell><mxCell id="likvm_ff2hPBOwKEgcOn-32" value="Class Advancement" style="triangle;whiteSpace=wrap;html=1;rounded=0;glass=0;sketch=0;fillStyle=solid;fillColor=default;gradientColor=none;" vertex="1" parent="1"><mxGeometry x="1420" y="500" width="120" height="80" as="geometry"/></mxCell><mxCell id="likvm_ff2hPBOwKEgcOn-33" value="List" style="swimlane;fontStyle=0;childLayout=stackLayout;horizontal=1;startSize=30;horizontalStack=0;resizeParent=1;resizeParentMax=0;resizeLast=0;collapsible=1;marginBottom=0;whiteSpace=wrap;html=1;gradientColor=none;swimlaneLine=1;glass=0;sketch=0;rounded=0;fillColor=default;fillStyle=solid;swimlaneFillColor=default;" vertex="1" parent="1"><mxGeometry x="205" y="300" width="210" height="90" as="geometry"/></mxCell><mxCell id="likvm_ff2hPBOwKEgcOn-34" value="Item 1" style="text;strokeColor=none;fillColor=none;align=left;verticalAlign=middle;spacingLeft=4;spacingRight=4;overflow=hidden;points=[[0,0.5],[1,0.5]];portConstraint=eastwest;rotatable=0;whiteSpace=wrap;html=1;" vertex="1" parent="likvm_ff2hPBOwKEgcOn-33"><mxGeometry y="30" width="210" height="30" as="geometry"/></mxCell><mxCell id="likvm_ff2hPBOwKEgcOn-35" value="Item 2" style="text;strokeColor=none;fillColor=none;align=left;verticalAlign=middle;spacingLeft=4;spacingRight=4;overflow=hidden;points=[[0,0.5],[1,0.5]];portConstraint=eastwest;rotatable=0;whiteSpace=wrap;html=1;" vertex="1" parent="likvm_ff2hPBOwKEgcOn-33"><mxGeometry y="60" width="210" height="30" as="geometry"/></mxCell><mxCell id="likvm_ff2hPBOwKEgcOn-37" value="List" style="swimlane;fontStyle=0;childLayout=stackLayout;horizontal=1;startSize=30;horizontalStack=0;resizeParent=1;resizeParentMax=0;resizeLast=0;collapsible=1;marginBottom=0;whiteSpace=wrap;html=1;gradientColor=none;swimlaneLine=1;glass=0;sketch=0;rounded=0;fillColor=default;fillStyle=solid;swimlaneFillColor=default;" vertex="1" parent="1"><mxGeometry x="445" y="300" width="210" height="90" as="geometry"/></mxCell><mxCell id="likvm_ff2hPBOwKEgcOn-38" value="Item 1" style="text;strokeColor=none;fillColor=none;align=left;verticalAlign=middle;spacingLeft=4;spacingRight=4;overflow=hidden;points=[[0,0.5],[1,0.5]];portConstraint=eastwest;rotatable=0;whiteSpace=wrap;html=1;" vertex="1" parent="likvm_ff2hPBOwKEgcOn-37"><mxGeometry y="30" width="210" height="30" as="geometry"/></mxCell><mxCell id="likvm_ff2hPBOwKEgcOn-39" value="Item 2" style="text;strokeColor=none;fillColor=none;align=left;verticalAlign=middle;spacingLeft=4;spacingRight=4;overflow=hidden;points=[[0,0.5],[1,0.5]];portConstraint=eastwest;rotatable=0;whiteSpace=wrap;html=1;" vertex="1" parent="likvm_ff2hPBOwKEgcOn-37"><mxGeometry y="60" width="210" height="30" as="geometry"/></mxCell><mxCell id="likvm_ff2hPBOwKEgcOn-41" value="List" style="swimlane;fontStyle=0;childLayout=stackLayout;horizontal=1;startSize=30;horizontalStack=0;resizeParent=1;resizeParentMax=0;resizeLast=0;collapsible=1;marginBottom=0;whiteSpace=wrap;html=1;gradientColor=none;swimlaneLine=1;glass=0;sketch=0;rounded=0;fillColor=default;fillStyle=solid;swimlaneFillColor=default;" vertex="1" parent="1"><mxGeometry x="685" y="300" width="210" height="90" as="geometry"/></mxCell><mxCell id="likvm_ff2hPBOwKEgcOn-42" value="Item 1" style="text;strokeColor=none;fillColor=none;align=left;verticalAlign=middle;spacingLeft=4;spacingRight=4;overflow=hidden;points=[[0,0.5],[1,0.5]];portConstraint=eastwest;rotatable=0;whiteSpace=wrap;html=1;" vertex="1" parent="likvm_ff2hPBOwKEgcOn-41"><mxGeometry y="30" width="210" height="30" as="geometry"/></mxCell><mxCell id="likvm_ff2hPBOwKEgcOn-43" value="Item 2" style="text;strokeColor=none;fillColor=none;align=left;verticalAlign=middle;spacingLeft=4;spacingRight=4;overflow=hidden;points=[[0,0.5],[1,0.5]];portConstraint=eastwest;rotatable=0;whiteSpace=wrap;html=1;" vertex="1" parent="likvm_ff2hPBOwKEgcOn-41"><mxGeometry y="60" width="210" height="30" as="geometry"/></mxCell><mxCell id="likvm_ff2hPBOwKEgcOn-45" value="List" style="swimlane;fontStyle=0;childLayout=stackLayout;horizontal=1;startSize=30;horizontalStack=0;resizeParent=1;resizeParentMax=0;resizeLast=0;collapsible=1;marginBottom=0;whiteSpace=wrap;html=1;gradientColor=none;swimlaneLine=1;glass=0;sketch=0;rounded=0;fillColor=default;fillStyle=solid;swimlaneFillColor=default;" vertex="1" parent="1"><mxGeometry x="925" y="300" width="210" height="90" as="geometry"/></mxCell><mxCell id="likvm_ff2hPBOwKEgcOn-46" value="Item 1" style="text;strokeColor=none;fillColor=none;align=left;verticalAlign=middle;spacingLeft=4;spacingRight=4;overflow=hidden;points=[[0,0.5],[1,0.5]];portConstraint=eastwest;rotatable=0;whiteSpace=wrap;html=1;" vertex="1" parent="likvm_ff2hPBOwKEgcOn-45"><mxGeometry y="30" width="210" height="30" as="geometry"/></mxCell><mxCell id="likvm_ff2hPBOwKEgcOn-47" value="Item 2" style="text;strokeColor=none;fillColor=none;align=left;verticalAlign=middle;spacingLeft=4;spacingRight=4;overflow=hidden;points=[[0,0.5],[1,0.5]];portConstraint=eastwest;rotatable=0;whiteSpace=wrap;html=1;" vertex="1" parent="likvm_ff2hPBOwKEgcOn-45"><mxGeometry y="60" width="210" height="30" as="geometry"/></mxCell><mxCell id="likvm_ff2hPBOwKEgcOn-49" value="List" style="swimlane;fontStyle=0;childLayout=stackLayout;horizontal=1;startSize=30;horizontalStack=0;resizeParent=1;resizeParentMax=0;resizeLast=0;collapsible=1;marginBottom=0;whiteSpace=wrap;html=1;gradientColor=none;swimlaneLine=1;glass=0;sketch=0;rounded=0;fillColor=default;fillStyle=solid;swimlaneFillColor=default;" vertex="1" parent="1"><mxGeometry x="1165" y="300" width="210" height="90" as="geometry"/></mxCell><mxCell id="likvm_ff2hPBOwKEgcOn-50" value="Item 1" style="text;strokeColor=none;fillColor=none;align=left;verticalAlign=middle;spacingLeft=4;spacingRight=4;overflow=hidden;points=[[0,0.5],[1,0.5]];portConstraint=eastwest;rotatable=0;whiteSpace=wrap;html=1;" vertex="1" parent="likvm_ff2hPBOwKEgcOn-49"><mxGeometry y="30" width="210" height="30" as="geometry"/></mxCell><mxCell id="likvm_ff2hPBOwKEgcOn-51" value="Item 2" style="text;strokeColor=none;fillColor=none;align=left;verticalAlign=middle;spacingLeft=4;spacingRight=4;overflow=hidden;points=[[0,0.5],[1,0.5]];portConstraint=eastwest;rotatable=0;whiteSpace=wrap;html=1;" vertex="1" parent="likvm_ff2hPBOwKEgcOn-49"><mxGeometry y="60" width="210" height="30" as="geometry"/></mxCell><mxCell id="likvm_ff2hPBOwKEgcOn-53" value="List" style="swimlane;fontStyle=0;childLayout=stackLayout;horizontal=1;startSize=30;horizontalStack=0;resizeParent=1;resizeParentMax=0;resizeLast=0;collapsible=1;marginBottom=0;whiteSpace=wrap;html=1;swimlaneFillColor=default;" vertex="1" parent="1"><mxGeometry x="10" y="650" width="140" height="150" as="geometry"/></mxCell><mxCell id="likvm_ff2hPBOwKEgcOn-54" value="Sword Up" style="text;strokeColor=none;fillColor=none;align=left;verticalAlign=middle;spacingLeft=4;spacingRight=4;overflow=hidden;points=[[0,0.5],[1,0.5]];portConstraint=eastwest;rotatable=0;whiteSpace=wrap;html=1;" vertex="1" parent="likvm_ff2hPBOwKEgcOn-53"><mxGeometry y="30" width="140" height="30" as="geometry"/></mxCell><mxCell id="likvm_ff2hPBOwKEgcOn-55" value="Shield Up" style="text;strokeColor=none;fillColor=none;align=left;verticalAlign=middle;spacingLeft=4;spacingRight=4;overflow=hidden;points=[[0,0.5],[1,0.5]];portConstraint=eastwest;rotatable=0;whiteSpace=wrap;html=1;" vertex="1" parent="likvm_ff2hPBOwKEgcOn-53"><mxGeometry y="60" width="140" height="30" as="geometry"/></mxCell><mxCell id="likvm_ff2hPBOwKEgcOn-56" value="Armor Up" style="text;strokeColor=none;fillColor=none;align=left;verticalAlign=middle;spacingLeft=4;spacingRight=4;overflow=hidden;points=[[0,0.5],[1,0.5]];portConstraint=eastwest;rotatable=0;whiteSpace=wrap;html=1;" vertex="1" parent="likvm_ff2hPBOwKEgcOn-53"><mxGeometry y="90" width="140" height="30" as="geometry"/></mxCell><mxCell id="likvm_ff2hPBOwKEgcOn-57" value="Magic Defence Down" style="text;strokeColor=none;fillColor=none;align=left;verticalAlign=middle;spacingLeft=4;spacingRight=4;overflow=hidden;points=[[0,0.5],[1,0.5]];portConstraint=eastwest;rotatable=0;whiteSpace=wrap;html=1;" vertex="1" parent="likvm_ff2hPBOwKEgcOn-53"><mxGeometry y="120" width="140" height="30" as="geometry"/></mxCell><mxCell id="likvm_ff2hPBOwKEgcOn-58" value="List" style="swimlane;fontStyle=0;childLayout=stackLayout;horizontal=1;startSize=30;horizontalStack=0;resizeParent=1;resizeParentMax=0;resizeLast=0;collapsible=1;marginBottom=0;whiteSpace=wrap;html=1;swimlaneFillColor=default;" vertex="1" parent="1"><mxGeometry x="-150" y="90" width="140" height="180" as="geometry"/></mxCell><mxCell id="likvm_ff2hPBOwKEgcOn-59" value="Fire Magic" style="text;strokeColor=none;fillColor=none;align=left;verticalAlign=middle;spacingLeft=4;spacingRight=4;overflow=hidden;points=[[0,0.5],[1,0.5]];portConstraint=eastwest;rotatable=0;whiteSpace=wrap;html=1;" vertex="1" parent="likvm_ff2hPBOwKEgcOn-58"><mxGeometry y="30" width="140" height="30" as="geometry"/></mxCell><mxCell id="likvm_ff2hPBOwKEgcOn-60" value="Sword Up" style="text;strokeColor=none;fillColor=none;align=left;verticalAlign=middle;spacingLeft=4;spacingRight=4;overflow=hidden;points=[[0,0.5],[1,0.5]];portConstraint=eastwest;rotatable=0;whiteSpace=wrap;html=1;" vertex="1" parent="likvm_ff2hPBOwKEgcOn-58"><mxGeometry y="60" width="140" height="30" as="geometry"/></mxCell><mxCell id="likvm_ff2hPBOwKEgcOn-61" value="Shield Up" style="text;strokeColor=none;fillColor=none;align=left;verticalAlign=middle;spacingLeft=4;spacingRight=4;overflow=hidden;points=[[0,0.5],[1,0.5]];portConstraint=eastwest;rotatable=0;whiteSpace=wrap;html=1;" vertex="1" parent="likvm_ff2hPBOwKEgcOn-58"><mxGeometry y="90" width="140" height="30" as="geometry"/></mxCell><mxCell id="likvm_ff2hPBOwKEgcOn-62" value="Armor Up" style="text;strokeColor=none;fillColor=none;align=left;verticalAlign=middle;spacingLeft=4;spacingRight=4;overflow=hidden;points=[[0,0.5],[1,0.5]];portConstraint=eastwest;rotatable=0;whiteSpace=wrap;html=1;" vertex="1" parent="likvm_ff2hPBOwKEgcOn-58"><mxGeometry y="120" width="140" height="30" as="geometry"/></mxCell><mxCell id="likvm_ff2hPBOwKEgcOn-63" value="Magic Defence Down" style="text;strokeColor=none;fillColor=none;align=left;verticalAlign=middle;spacingLeft=4;spacingRight=4;overflow=hidden;points=[[0,0.5],[1,0.5]];portConstraint=eastwest;rotatable=0;whiteSpace=wrap;html=1;" vertex="1" parent="likvm_ff2hPBOwKEgcOn-58"><mxGeometry y="150" width="140" height="30" as="geometry"/></mxCell><mxCell id="likvm_ff2hPBOwKEgcOn-64" value="" style="edgeStyle=orthogonalEdgeStyle;rounded=0;orthogonalLoop=1;jettySize=auto;html=1;exitX=0;exitY=0.5;exitDx=0;exitDy=0;entryX=0.5;entryY=0;entryDx=0;entryDy=0;endArrow=none;" edge="1" parent="1" source="likvm_ff2hPBOwKEgcOn-16" target="likvm_ff2hPBOwKEgcOn-58"><mxGeometry relative="1" as="geometry"><mxPoint x="20" y="70" as="sourcePoint"/><mxPoint x="80" y="650" as="targetPoint"/><Array as="points"/></mxGeometry></mxCell><mxCell id="likvm_ff2hPBOwKEgcOn-65" value="List" style="swimlane;fontStyle=0;childLayout=stackLayout;horizontal=1;startSize=30;horizontalStack=0;resizeParent=1;resizeParentMax=0;resizeLast=0;collapsible=1;marginBottom=0;whiteSpace=wrap;html=1;gradientColor=none;swimlaneLine=1;glass=0;sketch=0;rounded=0;fillColor=default;fillStyle=solid;swimlaneFillColor=default;" vertex="1" parent="1"><mxGeometry x="205" y="100" width="210" height="60" as="geometry"/></mxCell><mxCell id="likvm_ff2hPBOwKEgcOn-66" value="Item 1" style="text;strokeColor=none;fillColor=none;align=left;verticalAlign=middle;spacingLeft=4;spacingRight=4;overflow=hidden;points=[[0,0.5],[1,0.5]];portConstraint=eastwest;rotatable=0;whiteSpace=wrap;html=1;" vertex="1" parent="likvm_ff2hPBOwKEgcOn-65"><mxGeometry y="30" width="210" height="30" as="geometry"/></mxCell><mxCell id="likvm_ff2hPBOwKEgcOn-67" value="List" style="swimlane;fontStyle=0;childLayout=stackLayout;horizontal=1;startSize=30;horizontalStack=0;resizeParent=1;resizeParentMax=0;resizeLast=0;collapsible=1;marginBottom=0;whiteSpace=wrap;html=1;gradientColor=none;swimlaneLine=1;glass=0;sketch=0;rounded=0;fillColor=default;fillStyle=solid;swimlaneFillColor=default;" vertex="1" parent="1"><mxGeometry x="445" y="100" width="210" height="60" as="geometry"/></mxCell><mxCell id="likvm_ff2hPBOwKEgcOn-68" value="Item 1" style="text;strokeColor=none;fillColor=none;align=left;verticalAlign=middle;spacingLeft=4;spacingRight=4;overflow=hidden;points=[[0,0.5],[1,0.5]];portConstraint=eastwest;rotatable=0;whiteSpace=wrap;html=1;" vertex="1" parent="likvm_ff2hPBOwKEgcOn-67"><mxGeometry y="30" width="210" height="30" as="geometry"/></mxCell><mxCell id="likvm_ff2hPBOwKEgcOn-69" value="List" style="swimlane;fontStyle=0;childLayout=stackLayout;horizontal=1;startSize=30;horizontalStack=0;resizeParent=1;resizeParentMax=0;resizeLast=0;collapsible=1;marginBottom=0;whiteSpace=wrap;html=1;gradientColor=none;swimlaneLine=1;glass=0;sketch=0;rounded=0;fillColor=default;fillStyle=solid;swimlaneFillColor=default;" vertex="1" parent="1"><mxGeometry x="685" y="100" width="210" height="60" as="geometry"/></mxCell><mxCell id="likvm_ff2hPBOwKEgcOn-70" value="Item 1" style="text;strokeColor=none;fillColor=none;align=left;verticalAlign=middle;spacingLeft=4;spacingRight=4;overflow=hidden;points=[[0,0.5],[1,0.5]];portConstraint=eastwest;rotatable=0;whiteSpace=wrap;html=1;" vertex="1" parent="likvm_ff2hPBOwKEgcOn-69"><mxGeometry y="30" width="210" height="30" as="geometry"/></mxCell><mxCell id="likvm_ff2hPBOwKEgcOn-71" value="List" style="swimlane;fontStyle=0;childLayout=stackLayout;horizontal=1;startSize=30;horizontalStack=0;resizeParent=1;resizeParentMax=0;resizeLast=0;collapsible=1;marginBottom=0;whiteSpace=wrap;html=1;gradientColor=none;swimlaneLine=1;glass=0;sketch=0;rounded=0;fillColor=default;fillStyle=solid;swimlaneFillColor=default;" vertex="1" parent="1"><mxGeometry x="925" y="100" width="210" height="60" as="geometry"/></mxCell><mxCell id="likvm_ff2hPBOwKEgcOn-72" value="Item 1" style="text;strokeColor=none;fillColor=none;align=left;verticalAlign=middle;spacingLeft=4;spacingRight=4;overflow=hidden;points=[[0,0.5],[1,0.5]];portConstraint=eastwest;rotatable=0;whiteSpace=wrap;html=1;" vertex="1" parent="likvm_ff2hPBOwKEgcOn-71"><mxGeometry y="30" width="210" height="30" as="geometry"/></mxCell><mxCell id="likvm_ff2hPBOwKEgcOn-73" value="List" style="swimlane;fontStyle=0;childLayout=stackLayout;horizontal=1;startSize=30;horizontalStack=0;resizeParent=1;resizeParentMax=0;resizeLast=0;collapsible=1;marginBottom=0;whiteSpace=wrap;html=1;gradientColor=none;swimlaneLine=1;glass=0;sketch=0;rounded=0;fillColor=default;fillStyle=solid;swimlaneFillColor=default;" vertex="1" parent="1"><mxGeometry x="1165" y="100" width="210" height="60" as="geometry"/></mxCell><mxCell id="likvm_ff2hPBOwKEgcOn-74" value="Item 1" style="text;strokeColor=none;fillColor=none;align=left;verticalAlign=middle;spacingLeft=4;spacingRight=4;overflow=hidden;points=[[0,0.5],[1,0.5]];portConstraint=eastwest;rotatable=0;whiteSpace=wrap;html=1;" vertex="1" parent="likvm_ff2hPBOwKEgcOn-73"><mxGeometry y="30" width="210" height="30" as="geometry"/></mxCell></root></mxGraphModel></diagram><diagram id="dOXGk2UE9rH-44fMUdsG" name="Templar"><mxGraphModel dx="3060" dy="1993" grid="1" gridSize="10" guides="1" tooltips="1" connect="1" arrows="1" fold="1" page="1" pageScale="1" pageWidth="850" pageHeight="1100" math="0" shadow="0"><root><mxCell id="0"/><mxCell id="1" parent="0"/><mxCell id="XTSRO77bZdGsyIlhDMO5-1" style="edgeStyle=orthogonalEdgeStyle;rounded=0;orthogonalLoop=1;jettySize=auto;html=1;exitX=0.5;exitY=0;exitDx=0;exitDy=0;entryX=0.5;entryY=1;entryDx=0;entryDy=0;" edge="1" parent="1" source="XTSRO77bZdGsyIlhDMO5-5" target="XTSRO77bZdGsyIlhDMO5-16"><mxGeometry relative="1" as="geometry"/></mxCell><mxCell id="XTSRO77bZdGsyIlhDMO5-2" value="If Demon&lt;br&gt;Able to choose" style="edgeLabel;html=1;align=center;verticalAlign=middle;resizable=0;points=[];" vertex="1" connectable="0" parent="XTSRO77bZdGsyIlhDMO5-1"><mxGeometry x="-0.1652" relative="1" as="geometry"><mxPoint y="-14" as="offset"/></mxGeometry></mxCell><mxCell id="XTSRO77bZdGsyIlhDMO5-3" style="edgeStyle=orthogonalEdgeStyle;rounded=0;orthogonalLoop=1;jettySize=auto;html=1;exitX=1;exitY=0.5;exitDx=0;exitDy=0;entryX=0;entryY=0.5;entryDx=0;entryDy=0;" edge="1" parent="1" source="XTSRO77bZdGsyIlhDMO5-5" target="XTSRO77bZdGsyIlhDMO5-19"><mxGeometry relative="1" as="geometry"/></mxCell><mxCell id="XTSRO77bZdGsyIlhDMO5-4" style="edgeStyle=orthogonalEdgeStyle;rounded=0;orthogonalLoop=1;jettySize=auto;html=1;exitX=0.5;exitY=1;exitDx=0;exitDy=0;entryX=0.5;entryY=0;entryDx=0;entryDy=0;" edge="1" parent="1" source="XTSRO77bZdGsyIlhDMO5-5" target="XTSRO77bZdGsyIlhDMO5-53"><mxGeometry relative="1" as="geometry"/></mxCell><mxCell id="XTSRO77bZdGsyIlhDMO5-5" value="Knight" style="rounded=0;whiteSpace=wrap;html=1;glass=0;sketch=0;fillStyle=solid;fillColor=default;gradientColor=none;" vertex="1" parent="1"><mxGeometry x="20" y="510" width="120" height="60" as="geometry"/></mxCell><mxCell id="XTSRO77bZdGsyIlhDMO5-6" style="edgeStyle=orthogonalEdgeStyle;rounded=0;orthogonalLoop=1;jettySize=auto;html=1;exitX=1;exitY=0.5;exitDx=0;exitDy=0;entryX=0.5;entryY=0;entryDx=0;entryDy=0;" edge="1" parent="1" source="XTSRO77bZdGsyIlhDMO5-16" target="XTSRO77bZdGsyIlhDMO5-65"><mxGeometry relative="1" as="geometry"/></mxCell><mxCell id="XTSRO77bZdGsyIlhDMO5-7" style="edgeStyle=orthogonalEdgeStyle;rounded=0;orthogonalLoop=1;jettySize=auto;html=1;exitX=1;exitY=0.5;exitDx=0;exitDy=0;entryX=0.5;entryY=0;entryDx=0;entryDy=0;" edge="1" parent="1" source="XTSRO77bZdGsyIlhDMO5-16" target="XTSRO77bZdGsyIlhDMO5-67"><mxGeometry relative="1" as="geometry"/></mxCell><mxCell id="XTSRO77bZdGsyIlhDMO5-8" style="edgeStyle=orthogonalEdgeStyle;rounded=0;orthogonalLoop=1;jettySize=auto;html=1;exitX=1;exitY=0.5;exitDx=0;exitDy=0;entryX=0.5;entryY=0;entryDx=0;entryDy=0;" edge="1" parent="1" source="XTSRO77bZdGsyIlhDMO5-16" target="XTSRO77bZdGsyIlhDMO5-69"><mxGeometry relative="1" as="geometry"/></mxCell><mxCell id="XTSRO77bZdGsyIlhDMO5-9" style="edgeStyle=orthogonalEdgeStyle;rounded=0;orthogonalLoop=1;jettySize=auto;html=1;exitX=1;exitY=0.5;exitDx=0;exitDy=0;entryX=0.5;entryY=0;entryDx=0;entryDy=0;" edge="1" parent="1" source="XTSRO77bZdGsyIlhDMO5-16" target="XTSRO77bZdGsyIlhDMO5-71"><mxGeometry relative="1" as="geometry"/></mxCell><mxCell id="XTSRO77bZdGsyIlhDMO5-10" style="edgeStyle=orthogonalEdgeStyle;rounded=0;orthogonalLoop=1;jettySize=auto;html=1;exitX=1;exitY=0.5;exitDx=0;exitDy=0;entryX=0.5;entryY=0;entryDx=0;entryDy=0;" edge="1" parent="1" source="XTSRO77bZdGsyIlhDMO5-16" target="XTSRO77bZdGsyIlhDMO5-73"><mxGeometry relative="1" as="geometry"/></mxCell><mxCell id="XTSRO77bZdGsyIlhDMO5-11" style="edgeStyle=orthogonalEdgeStyle;rounded=0;orthogonalLoop=1;jettySize=auto;html=1;exitX=1;exitY=0.5;exitDx=0;exitDy=0;entryX=0.5;entryY=0;entryDx=0;entryDy=0;" edge="1" parent="1" source="XTSRO77bZdGsyIlhDMO5-16" target="XTSRO77bZdGsyIlhDMO5-33"><mxGeometry relative="1" as="geometry"/></mxCell><mxCell id="XTSRO77bZdGsyIlhDMO5-12" style="edgeStyle=orthogonalEdgeStyle;rounded=0;orthogonalLoop=1;jettySize=auto;html=1;exitX=1;exitY=0.5;exitDx=0;exitDy=0;entryX=0.5;entryY=0;entryDx=0;entryDy=0;" edge="1" parent="1" source="XTSRO77bZdGsyIlhDMO5-16" target="XTSRO77bZdGsyIlhDMO5-37"><mxGeometry relative="1" as="geometry"/></mxCell><mxCell id="XTSRO77bZdGsyIlhDMO5-13" style="edgeStyle=orthogonalEdgeStyle;rounded=0;orthogonalLoop=1;jettySize=auto;html=1;exitX=1;exitY=0.5;exitDx=0;exitDy=0;entryX=0.5;entryY=0;entryDx=0;entryDy=0;" edge="1" parent="1" source="XTSRO77bZdGsyIlhDMO5-16" target="XTSRO77bZdGsyIlhDMO5-41"><mxGeometry relative="1" as="geometry"/></mxCell><mxCell id="XTSRO77bZdGsyIlhDMO5-14" style="edgeStyle=orthogonalEdgeStyle;rounded=0;orthogonalLoop=1;jettySize=auto;html=1;exitX=1;exitY=0.5;exitDx=0;exitDy=0;entryX=0.5;entryY=0;entryDx=0;entryDy=0;" edge="1" parent="1" source="XTSRO77bZdGsyIlhDMO5-16" target="XTSRO77bZdGsyIlhDMO5-45"><mxGeometry relative="1" as="geometry"/></mxCell><mxCell id="XTSRO77bZdGsyIlhDMO5-15" style="edgeStyle=orthogonalEdgeStyle;rounded=0;orthogonalLoop=1;jettySize=auto;html=1;exitX=1;exitY=0.5;exitDx=0;exitDy=0;entryX=0.5;entryY=0;entryDx=0;entryDy=0;" edge="1" parent="1" source="XTSRO77bZdGsyIlhDMO5-16" target="XTSRO77bZdGsyIlhDMO5-49"><mxGeometry relative="1" as="geometry"/></mxCell><mxCell id="XTSRO77bZdGsyIlhDMO5-16" value="Demon Knight" style="rounded=0;whiteSpace=wrap;html=1;glass=0;sketch=0;fillStyle=solid;fillColor=default;gradientColor=none;" vertex="1" parent="1"><mxGeometry x="20" y="40" width="120" height="60" as="geometry"/></mxCell><mxCell id="XTSRO77bZdGsyIlhDMO5-17" style="edgeStyle=orthogonalEdgeStyle;rounded=0;orthogonalLoop=1;jettySize=auto;html=1;exitX=1;exitY=0.5;exitDx=0;exitDy=0;entryX=0;entryY=0.5;entryDx=0;entryDy=0;" edge="1" parent="1" source="XTSRO77bZdGsyIlhDMO5-19" target="XTSRO77bZdGsyIlhDMO5-22"><mxGeometry relative="1" as="geometry"/></mxCell><mxCell id="XTSRO77bZdGsyIlhDMO5-18" style="edgeStyle=orthogonalEdgeStyle;rounded=0;orthogonalLoop=1;jettySize=auto;html=1;exitX=0.5;exitY=0;exitDx=0;exitDy=0;entryX=0.5;entryY=1;entryDx=0;entryDy=0;" edge="1" parent="1" source="XTSRO77bZdGsyIlhDMO5-19" target="XTSRO77bZdGsyIlhDMO5-33"><mxGeometry relative="1" as="geometry"/></mxCell><mxCell id="14fQvUG82Ds1JSfNAeaf-4" style="edgeStyle=orthogonalEdgeStyle;rounded=0;orthogonalLoop=1;jettySize=auto;html=1;exitX=0.5;exitY=1;exitDx=0;exitDy=0;entryX=0.5;entryY=0;entryDx=0;entryDy=0;" edge="1" parent="1" source="XTSRO77bZdGsyIlhDMO5-19" target="14fQvUG82Ds1JSfNAeaf-2"><mxGeometry relative="1" as="geometry"/></mxCell><mxCell id="XTSRO77bZdGsyIlhDMO5-19" value="lvl.20" style="ellipse;whiteSpace=wrap;html=1;gradientColor=none;" vertex="1" parent="1"><mxGeometry x="250" y="510" width="120" height="60" as="geometry"/></mxCell><mxCell id="XTSRO77bZdGsyIlhDMO5-20" style="edgeStyle=orthogonalEdgeStyle;rounded=0;orthogonalLoop=1;jettySize=auto;html=1;exitX=1;exitY=0.5;exitDx=0;exitDy=0;entryX=0;entryY=0.5;entryDx=0;entryDy=0;" edge="1" parent="1" source="XTSRO77bZdGsyIlhDMO5-22" target="XTSRO77bZdGsyIlhDMO5-25"><mxGeometry relative="1" as="geometry"/></mxCell><mxCell id="XTSRO77bZdGsyIlhDMO5-21" style="edgeStyle=orthogonalEdgeStyle;rounded=0;orthogonalLoop=1;jettySize=auto;html=1;exitX=0.5;exitY=0;exitDx=0;exitDy=0;entryX=0.5;entryY=1;entryDx=0;entryDy=0;" edge="1" parent="1" source="XTSRO77bZdGsyIlhDMO5-22" target="XTSRO77bZdGsyIlhDMO5-37"><mxGeometry relative="1" as="geometry"/></mxCell><mxCell id="moFu5B_ybx8q5N4HHlQK-1" style="edgeStyle=orthogonalEdgeStyle;rounded=0;orthogonalLoop=1;jettySize=auto;html=1;exitX=0.5;exitY=1;exitDx=0;exitDy=0;entryX=0.5;entryY=0;entryDx=0;entryDy=0;" edge="1" parent="1" source="XTSRO77bZdGsyIlhDMO5-22" target="14fQvUG82Ds1JSfNAeaf-5"><mxGeometry relative="1" as="geometry"/></mxCell><mxCell id="XTSRO77bZdGsyIlhDMO5-22" value="lvl.25" style="ellipse;whiteSpace=wrap;html=1;gradientColor=none;" vertex="1" parent="1"><mxGeometry x="490" y="510" width="120" height="60" as="geometry"/></mxCell><mxCell id="XTSRO77bZdGsyIlhDMO5-23" style="edgeStyle=orthogonalEdgeStyle;rounded=0;orthogonalLoop=1;jettySize=auto;html=1;exitX=1;exitY=0.5;exitDx=0;exitDy=0;entryX=0;entryY=0.5;entryDx=0;entryDy=0;" edge="1" parent="1" source="XTSRO77bZdGsyIlhDMO5-25" target="XTSRO77bZdGsyIlhDMO5-28"><mxGeometry relative="1" as="geometry"/></mxCell><mxCell id="XTSRO77bZdGsyIlhDMO5-24" style="edgeStyle=orthogonalEdgeStyle;rounded=0;orthogonalLoop=1;jettySize=auto;html=1;exitX=0.5;exitY=0;exitDx=0;exitDy=0;entryX=0.5;entryY=1;entryDx=0;entryDy=0;" edge="1" parent="1" source="XTSRO77bZdGsyIlhDMO5-25" target="XTSRO77bZdGsyIlhDMO5-41"><mxGeometry relative="1" as="geometry"/></mxCell><mxCell id="moFu5B_ybx8q5N4HHlQK-2" style="edgeStyle=orthogonalEdgeStyle;rounded=0;orthogonalLoop=1;jettySize=auto;html=1;exitX=0.5;exitY=1;exitDx=0;exitDy=0;entryX=0.5;entryY=0;entryDx=0;entryDy=0;" edge="1" parent="1" source="XTSRO77bZdGsyIlhDMO5-25" target="14fQvUG82Ds1JSfNAeaf-7"><mxGeometry relative="1" as="geometry"/></mxCell><mxCell id="XTSRO77bZdGsyIlhDMO5-25" value="lvl.30" style="ellipse;whiteSpace=wrap;html=1;gradientColor=none;" vertex="1" parent="1"><mxGeometry x="730" y="510" width="120" height="60" as="geometry"/></mxCell><mxCell id="XTSRO77bZdGsyIlhDMO5-26" style="edgeStyle=orthogonalEdgeStyle;rounded=0;orthogonalLoop=1;jettySize=auto;html=1;exitX=1;exitY=0.5;exitDx=0;exitDy=0;entryX=0;entryY=0.5;entryDx=0;entryDy=0;" edge="1" parent="1" source="XTSRO77bZdGsyIlhDMO5-28" target="XTSRO77bZdGsyIlhDMO5-31"><mxGeometry relative="1" as="geometry"/></mxCell><mxCell id="XTSRO77bZdGsyIlhDMO5-27" style="edgeStyle=orthogonalEdgeStyle;rounded=0;orthogonalLoop=1;jettySize=auto;html=1;exitX=0.5;exitY=0;exitDx=0;exitDy=0;entryX=0.5;entryY=1;entryDx=0;entryDy=0;" edge="1" parent="1" source="XTSRO77bZdGsyIlhDMO5-28" target="XTSRO77bZdGsyIlhDMO5-45"><mxGeometry relative="1" as="geometry"/></mxCell><mxCell id="moFu5B_ybx8q5N4HHlQK-3" style="edgeStyle=orthogonalEdgeStyle;rounded=0;orthogonalLoop=1;jettySize=auto;html=1;exitX=0.5;exitY=1;exitDx=0;exitDy=0;entryX=0.5;entryY=0;entryDx=0;entryDy=0;" edge="1" parent="1" source="XTSRO77bZdGsyIlhDMO5-28" target="14fQvUG82Ds1JSfNAeaf-9"><mxGeometry relative="1" as="geometry"/></mxCell><mxCell id="XTSRO77bZdGsyIlhDMO5-28" value="lvl. 35" style="ellipse;whiteSpace=wrap;html=1;gradientColor=none;" vertex="1" parent="1"><mxGeometry x="970" y="510" width="120" height="60" as="geometry"/></mxCell><mxCell id="XTSRO77bZdGsyIlhDMO5-29" style="edgeStyle=orthogonalEdgeStyle;rounded=0;orthogonalLoop=1;jettySize=auto;html=1;exitX=1;exitY=0.5;exitDx=0;exitDy=0;entryX=0;entryY=0.5;entryDx=0;entryDy=0;" edge="1" parent="1" source="XTSRO77bZdGsyIlhDMO5-31" target="XTSRO77bZdGsyIlhDMO5-32"><mxGeometry relative="1" as="geometry"/></mxCell><mxCell id="XTSRO77bZdGsyIlhDMO5-30" style="edgeStyle=orthogonalEdgeStyle;rounded=0;orthogonalLoop=1;jettySize=auto;html=1;exitX=0.5;exitY=0;exitDx=0;exitDy=0;entryX=0.5;entryY=1;entryDx=0;entryDy=0;" edge="1" parent="1" source="XTSRO77bZdGsyIlhDMO5-31" target="XTSRO77bZdGsyIlhDMO5-49"><mxGeometry relative="1" as="geometry"/></mxCell><mxCell id="moFu5B_ybx8q5N4HHlQK-4" style="edgeStyle=orthogonalEdgeStyle;rounded=0;orthogonalLoop=1;jettySize=auto;html=1;exitX=0.5;exitY=1;exitDx=0;exitDy=0;entryX=0.5;entryY=0;entryDx=0;entryDy=0;" edge="1" parent="1" source="XTSRO77bZdGsyIlhDMO5-31" target="14fQvUG82Ds1JSfNAeaf-11"><mxGeometry relative="1" as="geometry"/></mxCell><mxCell id="XTSRO77bZdGsyIlhDMO5-31" value="lvl.40" style="ellipse;whiteSpace=wrap;html=1;gradientColor=none;" vertex="1" parent="1"><mxGeometry x="1210" y="510" width="120" height="60" as="geometry"/></mxCell><mxCell id="XTSRO77bZdGsyIlhDMO5-32" value="Class Advancement" style="triangle;whiteSpace=wrap;html=1;rounded=0;glass=0;sketch=0;fillStyle=solid;fillColor=default;gradientColor=none;" vertex="1" parent="1"><mxGeometry x="1420" y="500" width="120" height="80" as="geometry"/></mxCell><mxCell id="XTSRO77bZdGsyIlhDMO5-33" value="List" style="swimlane;fontStyle=0;childLayout=stackLayout;horizontal=1;startSize=30;horizontalStack=0;resizeParent=1;resizeParentMax=0;resizeLast=0;collapsible=1;marginBottom=0;whiteSpace=wrap;html=1;gradientColor=none;swimlaneLine=1;glass=0;sketch=0;rounded=0;fillColor=default;fillStyle=solid;swimlaneFillColor=default;" vertex="1" parent="1"><mxGeometry x="205" y="300" width="210" height="60" as="geometry"/></mxCell><mxCell id="XTSRO77bZdGsyIlhDMO5-34" value="Item 1" style="text;strokeColor=none;fillColor=none;align=left;verticalAlign=middle;spacingLeft=4;spacingRight=4;overflow=hidden;points=[[0,0.5],[1,0.5]];portConstraint=eastwest;rotatable=0;whiteSpace=wrap;html=1;" vertex="1" parent="XTSRO77bZdGsyIlhDMO5-33"><mxGeometry y="30" width="210" height="30" as="geometry"/></mxCell><mxCell id="XTSRO77bZdGsyIlhDMO5-37" value="List" style="swimlane;fontStyle=0;childLayout=stackLayout;horizontal=1;startSize=30;horizontalStack=0;resizeParent=1;resizeParentMax=0;resizeLast=0;collapsible=1;marginBottom=0;whiteSpace=wrap;html=1;gradientColor=none;swimlaneLine=1;glass=0;sketch=0;rounded=0;fillColor=default;fillStyle=solid;swimlaneFillColor=default;" vertex="1" parent="1"><mxGeometry x="445" y="300" width="210" height="60" as="geometry"/></mxCell><mxCell id="XTSRO77bZdGsyIlhDMO5-38" value="Item 1" style="text;strokeColor=none;fillColor=none;align=left;verticalAlign=middle;spacingLeft=4;spacingRight=4;overflow=hidden;points=[[0,0.5],[1,0.5]];portConstraint=eastwest;rotatable=0;whiteSpace=wrap;html=1;" vertex="1" parent="XTSRO77bZdGsyIlhDMO5-37"><mxGeometry y="30" width="210" height="30" as="geometry"/></mxCell><mxCell id="XTSRO77bZdGsyIlhDMO5-41" value="List" style="swimlane;fontStyle=0;childLayout=stackLayout;horizontal=1;startSize=30;horizontalStack=0;resizeParent=1;resizeParentMax=0;resizeLast=0;collapsible=1;marginBottom=0;whiteSpace=wrap;html=1;gradientColor=none;swimlaneLine=1;glass=0;sketch=0;rounded=0;fillColor=default;fillStyle=solid;swimlaneFillColor=default;" vertex="1" parent="1"><mxGeometry x="685" y="300" width="210" height="60" as="geometry"/></mxCell><mxCell id="XTSRO77bZdGsyIlhDMO5-42" value="Item 1" style="text;strokeColor=none;fillColor=none;align=left;verticalAlign=middle;spacingLeft=4;spacingRight=4;overflow=hidden;points=[[0,0.5],[1,0.5]];portConstraint=eastwest;rotatable=0;whiteSpace=wrap;html=1;" vertex="1" parent="XTSRO77bZdGsyIlhDMO5-41"><mxGeometry y="30" width="210" height="30" as="geometry"/></mxCell><mxCell id="XTSRO77bZdGsyIlhDMO5-45" value="List" style="swimlane;fontStyle=0;childLayout=stackLayout;horizontal=1;startSize=30;horizontalStack=0;resizeParent=1;resizeParentMax=0;resizeLast=0;collapsible=1;marginBottom=0;whiteSpace=wrap;html=1;gradientColor=none;swimlaneLine=1;glass=0;sketch=0;rounded=0;fillColor=default;fillStyle=solid;swimlaneFillColor=default;" vertex="1" parent="1"><mxGeometry x="925" y="300" width="210" height="60" as="geometry"/></mxCell><mxCell id="XTSRO77bZdGsyIlhDMO5-46" value="Item 1" style="text;strokeColor=none;fillColor=none;align=left;verticalAlign=middle;spacingLeft=4;spacingRight=4;overflow=hidden;points=[[0,0.5],[1,0.5]];portConstraint=eastwest;rotatable=0;whiteSpace=wrap;html=1;" vertex="1" parent="XTSRO77bZdGsyIlhDMO5-45"><mxGeometry y="30" width="210" height="30" as="geometry"/></mxCell><mxCell id="XTSRO77bZdGsyIlhDMO5-49" value="List" style="swimlane;fontStyle=0;childLayout=stackLayout;horizontal=1;startSize=30;horizontalStack=0;resizeParent=1;resizeParentMax=0;resizeLast=0;collapsible=1;marginBottom=0;whiteSpace=wrap;html=1;gradientColor=none;swimlaneLine=1;glass=0;sketch=0;rounded=0;fillColor=default;fillStyle=solid;swimlaneFillColor=default;" vertex="1" parent="1"><mxGeometry x="1165" y="300" width="210" height="60" as="geometry"/></mxCell><mxCell id="XTSRO77bZdGsyIlhDMO5-50" value="Item 1" style="text;strokeColor=none;fillColor=none;align=left;verticalAlign=middle;spacingLeft=4;spacingRight=4;overflow=hidden;points=[[0,0.5],[1,0.5]];portConstraint=eastwest;rotatable=0;whiteSpace=wrap;html=1;" vertex="1" parent="XTSRO77bZdGsyIlhDMO5-49"><mxGeometry y="30" width="210" height="30" as="geometry"/></mxCell><mxCell id="XTSRO77bZdGsyIlhDMO5-53" value="List" style="swimlane;fontStyle=0;childLayout=stackLayout;horizontal=1;startSize=30;horizontalStack=0;resizeParent=1;resizeParentMax=0;resizeLast=0;collapsible=1;marginBottom=0;whiteSpace=wrap;html=1;swimlaneFillColor=default;" vertex="1" parent="1"><mxGeometry x="10" y="650" width="140" height="150" as="geometry"/></mxCell><mxCell id="XTSRO77bZdGsyIlhDMO5-54" value="Sword Up" style="text;strokeColor=none;fillColor=none;align=left;verticalAlign=middle;spacingLeft=4;spacingRight=4;overflow=hidden;points=[[0,0.5],[1,0.5]];portConstraint=eastwest;rotatable=0;whiteSpace=wrap;html=1;" vertex="1" parent="XTSRO77bZdGsyIlhDMO5-53"><mxGeometry y="30" width="140" height="30" as="geometry"/></mxCell><mxCell id="XTSRO77bZdGsyIlhDMO5-55" value="Shield Up" style="text;strokeColor=none;fillColor=none;align=left;verticalAlign=middle;spacingLeft=4;spacingRight=4;overflow=hidden;points=[[0,0.5],[1,0.5]];portConstraint=eastwest;rotatable=0;whiteSpace=wrap;html=1;" vertex="1" parent="XTSRO77bZdGsyIlhDMO5-53"><mxGeometry y="60" width="140" height="30" as="geometry"/></mxCell><mxCell id="XTSRO77bZdGsyIlhDMO5-56" value="Armor Up" style="text;strokeColor=none;fillColor=none;align=left;verticalAlign=middle;spacingLeft=4;spacingRight=4;overflow=hidden;points=[[0,0.5],[1,0.5]];portConstraint=eastwest;rotatable=0;whiteSpace=wrap;html=1;" vertex="1" parent="XTSRO77bZdGsyIlhDMO5-53"><mxGeometry y="90" width="140" height="30" as="geometry"/></mxCell><mxCell id="XTSRO77bZdGsyIlhDMO5-57" value="Magic Defence Down" style="text;strokeColor=none;fillColor=none;align=left;verticalAlign=middle;spacingLeft=4;spacingRight=4;overflow=hidden;points=[[0,0.5],[1,0.5]];portConstraint=eastwest;rotatable=0;whiteSpace=wrap;html=1;" vertex="1" parent="XTSRO77bZdGsyIlhDMO5-53"><mxGeometry y="120" width="140" height="30" as="geometry"/></mxCell><mxCell id="XTSRO77bZdGsyIlhDMO5-58" value="List" style="swimlane;fontStyle=0;childLayout=stackLayout;horizontal=1;startSize=30;horizontalStack=0;resizeParent=1;resizeParentMax=0;resizeLast=0;collapsible=1;marginBottom=0;whiteSpace=wrap;html=1;swimlaneFillColor=default;" vertex="1" parent="1"><mxGeometry x="-150" y="90" width="140" height="180" as="geometry"/></mxCell><mxCell id="XTSRO77bZdGsyIlhDMO5-59" value="Fire Magic" style="text;strokeColor=none;fillColor=none;align=left;verticalAlign=middle;spacingLeft=4;spacingRight=4;overflow=hidden;points=[[0,0.5],[1,0.5]];portConstraint=eastwest;rotatable=0;whiteSpace=wrap;html=1;" vertex="1" parent="XTSRO77bZdGsyIlhDMO5-58"><mxGeometry y="30" width="140" height="30" as="geometry"/></mxCell><mxCell id="XTSRO77bZdGsyIlhDMO5-60" value="Sword Up" style="text;strokeColor=none;fillColor=none;align=left;verticalAlign=middle;spacingLeft=4;spacingRight=4;overflow=hidden;points=[[0,0.5],[1,0.5]];portConstraint=eastwest;rotatable=0;whiteSpace=wrap;html=1;" vertex="1" parent="XTSRO77bZdGsyIlhDMO5-58"><mxGeometry y="60" width="140" height="30" as="geometry"/></mxCell><mxCell id="XTSRO77bZdGsyIlhDMO5-61" value="Shield Up" style="text;strokeColor=none;fillColor=none;align=left;verticalAlign=middle;spacingLeft=4;spacingRight=4;overflow=hidden;points=[[0,0.5],[1,0.5]];portConstraint=eastwest;rotatable=0;whiteSpace=wrap;html=1;" vertex="1" parent="XTSRO77bZdGsyIlhDMO5-58"><mxGeometry y="90" width="140" height="30" as="geometry"/></mxCell><mxCell id="XTSRO77bZdGsyIlhDMO5-62" value="Armor Up" style="text;strokeColor=none;fillColor=none;align=left;verticalAlign=middle;spacingLeft=4;spacingRight=4;overflow=hidden;points=[[0,0.5],[1,0.5]];portConstraint=eastwest;rotatable=0;whiteSpace=wrap;html=1;" vertex="1" parent="XTSRO77bZdGsyIlhDMO5-58"><mxGeometry y="120" width="140" height="30" as="geometry"/></mxCell><mxCell id="XTSRO77bZdGsyIlhDMO5-63" value="Magic Defence Down" style="text;strokeColor=none;fillColor=none;align=left;verticalAlign=middle;spacingLeft=4;spacingRight=4;overflow=hidden;points=[[0,0.5],[1,0.5]];portConstraint=eastwest;rotatable=0;whiteSpace=wrap;html=1;" vertex="1" parent="XTSRO77bZdGsyIlhDMO5-58"><mxGeometry y="150" width="140" height="30" as="geometry"/></mxCell><mxCell id="XTSRO77bZdGsyIlhDMO5-64" value="" style="edgeStyle=orthogonalEdgeStyle;rounded=0;orthogonalLoop=1;jettySize=auto;html=1;exitX=0;exitY=0.5;exitDx=0;exitDy=0;entryX=0.5;entryY=0;entryDx=0;entryDy=0;endArrow=none;" edge="1" parent="1" source="XTSRO77bZdGsyIlhDMO5-16" target="XTSRO77bZdGsyIlhDMO5-58"><mxGeometry relative="1" as="geometry"><mxPoint x="20" y="70" as="sourcePoint"/><mxPoint x="80" y="650" as="targetPoint"/><Array as="points"/></mxGeometry></mxCell><mxCell id="XTSRO77bZdGsyIlhDMO5-65" value="List" style="swimlane;fontStyle=0;childLayout=stackLayout;horizontal=1;startSize=30;horizontalStack=0;resizeParent=1;resizeParentMax=0;resizeLast=0;collapsible=1;marginBottom=0;whiteSpace=wrap;html=1;gradientColor=none;swimlaneLine=1;glass=0;sketch=0;rounded=0;fillColor=default;fillStyle=solid;swimlaneFillColor=default;" vertex="1" parent="1"><mxGeometry x="205" y="100" width="210" height="60" as="geometry"/></mxCell><mxCell id="XTSRO77bZdGsyIlhDMO5-66" value="Item 1" style="text;strokeColor=none;fillColor=none;align=left;verticalAlign=middle;spacingLeft=4;spacingRight=4;overflow=hidden;points=[[0,0.5],[1,0.5]];portConstraint=eastwest;rotatable=0;whiteSpace=wrap;html=1;" vertex="1" parent="XTSRO77bZdGsyIlhDMO5-65"><mxGeometry y="30" width="210" height="30" as="geometry"/></mxCell><mxCell id="XTSRO77bZdGsyIlhDMO5-67" value="List" style="swimlane;fontStyle=0;childLayout=stackLayout;horizontal=1;startSize=30;horizontalStack=0;resizeParent=1;resizeParentMax=0;resizeLast=0;collapsible=1;marginBottom=0;whiteSpace=wrap;html=1;gradientColor=none;swimlaneLine=1;glass=0;sketch=0;rounded=0;fillColor=default;fillStyle=solid;swimlaneFillColor=default;" vertex="1" parent="1"><mxGeometry x="445" y="100" width="210" height="60" as="geometry"/></mxCell><mxCell id="XTSRO77bZdGsyIlhDMO5-68" value="Item 1" style="text;strokeColor=none;fillColor=none;align=left;verticalAlign=middle;spacingLeft=4;spacingRight=4;overflow=hidden;points=[[0,0.5],[1,0.5]];portConstraint=eastwest;rotatable=0;whiteSpace=wrap;html=1;" vertex="1" parent="XTSRO77bZdGsyIlhDMO5-67"><mxGeometry y="30" width="210" height="30" as="geometry"/></mxCell><mxCell id="XTSRO77bZdGsyIlhDMO5-69" value="List" style="swimlane;fontStyle=0;childLayout=stackLayout;horizontal=1;startSize=30;horizontalStack=0;resizeParent=1;resizeParentMax=0;resizeLast=0;collapsible=1;marginBottom=0;whiteSpace=wrap;html=1;gradientColor=none;swimlaneLine=1;glass=0;sketch=0;rounded=0;fillColor=default;fillStyle=solid;swimlaneFillColor=default;" vertex="1" parent="1"><mxGeometry x="685" y="100" width="210" height="60" as="geometry"/></mxCell><mxCell id="XTSRO77bZdGsyIlhDMO5-70" value="Item 1" style="text;strokeColor=none;fillColor=none;align=left;verticalAlign=middle;spacingLeft=4;spacingRight=4;overflow=hidden;points=[[0,0.5],[1,0.5]];portConstraint=eastwest;rotatable=0;whiteSpace=wrap;html=1;" vertex="1" parent="XTSRO77bZdGsyIlhDMO5-69"><mxGeometry y="30" width="210" height="30" as="geometry"/></mxCell><mxCell id="XTSRO77bZdGsyIlhDMO5-71" value="List" style="swimlane;fontStyle=0;childLayout=stackLayout;horizontal=1;startSize=30;horizontalStack=0;resizeParent=1;resizeParentMax=0;resizeLast=0;collapsible=1;marginBottom=0;whiteSpace=wrap;html=1;gradientColor=none;swimlaneLine=1;glass=0;sketch=0;rounded=0;fillColor=default;fillStyle=solid;swimlaneFillColor=default;" vertex="1" parent="1"><mxGeometry x="925" y="100" width="210" height="60" as="geometry"/></mxCell><mxCell id="XTSRO77bZdGsyIlhDMO5-72" value="Item 1" style="text;strokeColor=none;fillColor=none;align=left;verticalAlign=middle;spacingLeft=4;spacingRight=4;overflow=hidden;points=[[0,0.5],[1,0.5]];portConstraint=eastwest;rotatable=0;whiteSpace=wrap;html=1;" vertex="1" parent="XTSRO77bZdGsyIlhDMO5-71"><mxGeometry y="30" width="210" height="30" as="geometry"/></mxCell><mxCell id="XTSRO77bZdGsyIlhDMO5-73" value="List" style="swimlane;fontStyle=0;childLayout=stackLayout;horizontal=1;startSize=30;horizontalStack=0;resizeParent=1;resizeParentMax=0;resizeLast=0;collapsible=1;marginBottom=0;whiteSpace=wrap;html=1;gradientColor=none;swimlaneLine=1;glass=0;sketch=0;rounded=0;fillColor=default;fillStyle=solid;swimlaneFillColor=default;" vertex="1" parent="1"><mxGeometry x="1165" y="100" width="210" height="60" as="geometry"/></mxCell><mxCell id="XTSRO77bZdGsyIlhDMO5-74" value="Item 1" style="text;strokeColor=none;fillColor=none;align=left;verticalAlign=middle;spacingLeft=4;spacingRight=4;overflow=hidden;points=[[0,0.5],[1,0.5]];portConstraint=eastwest;rotatable=0;whiteSpace=wrap;html=1;" vertex="1" parent="XTSRO77bZdGsyIlhDMO5-73"><mxGeometry y="30" width="210" height="30" as="geometry"/></mxCell><mxCell id="14fQvUG82Ds1JSfNAeaf-2" value="List" style="swimlane;fontStyle=0;childLayout=stackLayout;horizontal=1;startSize=30;horizontalStack=0;resizeParent=1;resizeParentMax=0;resizeLast=0;collapsible=1;marginBottom=0;whiteSpace=wrap;html=1;gradientColor=none;swimlaneLine=1;glass=0;sketch=0;rounded=0;fillColor=default;fillStyle=solid;swimlaneFillColor=default;" vertex="1" parent="1"><mxGeometry x="205" y="650" width="210" height="60" as="geometry"/></mxCell><mxCell id="14fQvUG82Ds1JSfNAeaf-3" value="Item 1" style="text;strokeColor=none;fillColor=none;align=left;verticalAlign=middle;spacingLeft=4;spacingRight=4;overflow=hidden;points=[[0,0.5],[1,0.5]];portConstraint=eastwest;rotatable=0;whiteSpace=wrap;html=1;" vertex="1" parent="14fQvUG82Ds1JSfNAeaf-2"><mxGeometry y="30" width="210" height="30" as="geometry"/></mxCell><mxCell id="14fQvUG82Ds1JSfNAeaf-5" value="List" style="swimlane;fontStyle=0;childLayout=stackLayout;horizontal=1;startSize=30;horizontalStack=0;resizeParent=1;resizeParentMax=0;resizeLast=0;collapsible=1;marginBottom=0;whiteSpace=wrap;html=1;gradientColor=none;swimlaneLine=1;glass=0;sketch=0;rounded=0;fillColor=default;fillStyle=solid;swimlaneFillColor=default;" vertex="1" parent="1"><mxGeometry x="445" y="650" width="210" height="60" as="geometry"/></mxCell><mxCell id="14fQvUG82Ds1JSfNAeaf-6" value="Item 1" style="text;strokeColor=none;fillColor=none;align=left;verticalAlign=middle;spacingLeft=4;spacingRight=4;overflow=hidden;points=[[0,0.5],[1,0.5]];portConstraint=eastwest;rotatable=0;whiteSpace=wrap;html=1;" vertex="1" parent="14fQvUG82Ds1JSfNAeaf-5"><mxGeometry y="30" width="210" height="30" as="geometry"/></mxCell><mxCell id="14fQvUG82Ds1JSfNAeaf-7" value="List" style="swimlane;fontStyle=0;childLayout=stackLayout;horizontal=1;startSize=30;horizontalStack=0;resizeParent=1;resizeParentMax=0;resizeLast=0;collapsible=1;marginBottom=0;whiteSpace=wrap;html=1;gradientColor=none;swimlaneLine=1;glass=0;sketch=0;rounded=0;fillColor=default;fillStyle=solid;swimlaneFillColor=default;" vertex="1" parent="1"><mxGeometry x="685" y="650" width="210" height="60" as="geometry"/></mxCell><mxCell id="14fQvUG82Ds1JSfNAeaf-8" value="Item 1" style="text;strokeColor=none;fillColor=none;align=left;verticalAlign=middle;spacingLeft=4;spacingRight=4;overflow=hidden;points=[[0,0.5],[1,0.5]];portConstraint=eastwest;rotatable=0;whiteSpace=wrap;html=1;" vertex="1" parent="14fQvUG82Ds1JSfNAeaf-7"><mxGeometry y="30" width="210" height="30" as="geometry"/></mxCell><mxCell id="14fQvUG82Ds1JSfNAeaf-9" value="List" style="swimlane;fontStyle=0;childLayout=stackLayout;horizontal=1;startSize=30;horizontalStack=0;resizeParent=1;resizeParentMax=0;resizeLast=0;collapsible=1;marginBottom=0;whiteSpace=wrap;html=1;gradientColor=none;swimlaneLine=1;glass=0;sketch=0;rounded=0;fillColor=default;fillStyle=solid;swimlaneFillColor=default;" vertex="1" parent="1"><mxGeometry x="925" y="650" width="210" height="60" as="geometry"/></mxCell><mxCell id="14fQvUG82Ds1JSfNAeaf-10" value="Item 1" style="text;strokeColor=none;fillColor=none;align=left;verticalAlign=middle;spacingLeft=4;spacingRight=4;overflow=hidden;points=[[0,0.5],[1,0.5]];portConstraint=eastwest;rotatable=0;whiteSpace=wrap;html=1;" vertex="1" parent="14fQvUG82Ds1JSfNAeaf-9"><mxGeometry y="30" width="210" height="30" as="geometry"/></mxCell><mxCell id="14fQvUG82Ds1JSfNAeaf-11" value="List" style="swimlane;fontStyle=0;childLayout=stackLayout;horizontal=1;startSize=30;horizontalStack=0;resizeParent=1;resizeParentMax=0;resizeLast=0;collapsible=1;marginBottom=0;whiteSpace=wrap;html=1;gradientColor=none;swimlaneLine=1;glass=0;sketch=0;rounded=0;fillColor=default;fillStyle=solid;swimlaneFillColor=default;" vertex="1" parent="1"><mxGeometry x="1165" y="650" width="210" height="60" as="geometry"/></mxCell><mxCell id="14fQvUG82Ds1JSfNAeaf-12" value="Item 1" style="text;strokeColor=none;fillColor=none;align=left;verticalAlign=middle;spacingLeft=4;spacingRight=4;overflow=hidden;points=[[0,0.5],[1,0.5]];portConstraint=eastwest;rotatable=0;whiteSpace=wrap;html=1;" vertex="1" parent="14fQvUG82Ds1JSfNAeaf-11"><mxGeometry y="30" width="210" height="30" as="geometry"/></mxCell></root></mxGraphModel></diagram></mxfile>